<svg xmlns="http://www.w3.org/2000/svg" viewBox="0 0 31.259 31.183">
  <path d="M2.924,0A2.924,2.924,0,0,0,0,2.923V16.566a2.924,2.924,0,0,0,2.924,2.923H28.26a2.924,2.924,0,0,0,2.924-2.923V2.923A2.924,2.924,0,0,0,28.26,0ZM1.949,9.745A1.949,1.949,0,1,1,3.9,11.694,1.946,1.946,0,0,1,1.949,9.745ZM0,28.26a2.923,2.923,0,0,0,2.924,2.923H16.566A2.923,2.923,0,0,0,19.49,28.26V22.352H2.314a2.947,2.947,0,0,1-.684-.081A2.87,2.87,0,0,1,1,22.042a2.929,2.929,0,0,1-.55-.358A2.98,2.98,0,0,1,0,21.214H0Zm27-6.68-3.337,3.329c-.292.291-.056.75.4.75h1.93c-.049,2.933-.895,4.2-4.078,3.34a.349.349,0,0,0-.409.531,4.716,4.716,0,0,0,3.384,1.576c3.343,0,4.05-2.409,4.09-5.447h1.758c.453,0,.69-.459.4-.75L27.794,21.58a.586.586,0,0,0-.8,0Z" transform="translate(31.259 31.183) rotate(180)"/>
</svg>
