<svg version="1.1" xmlns="http://www.w3.org/2000/svg" viewBox="0 0 46 32">
<path fill="#f8f8ff" d="M4.388 16.925c-0.685-4.568-2.217-4.966-3.395-7.272-1.072-2.097-1.937-5.528 1.089-7.981 4.7-3.813 10.464 0.089 10.464 0.089s9.134 5.232 10.73 5.498 5.498 2.926 10.375-0.266 9.045-2.926 10.375-0.532-1.685 9.311-2.395 10.73 0.355 5.853 1.508 7.626 4.789 7.272-3.015 7.094-31.215 0.089-31.215 0.089-8.404-0.157-6.917-8.336c1.242-6.828 2.661-4.966 2.395-6.74z"></path>
<path fill="#bac5f4" d="M9.177 14.53c0 0.98-0.794 1.774-1.774 1.774s-1.774-0.794-1.774-1.774c0-0.98 0.794-1.774 1.774-1.774s1.774 0.794 1.774 1.774z"></path>
<path fill="#bac5f4" d="M5.629 16.703c0 0.661-0.536 1.197-1.197 1.197s-1.197-0.536-1.197-1.197c0-0.661 0.536-1.197 1.197-1.197s1.197 0.536 1.197 1.197z"></path>
<path fill="#bac5f4" d="M5.275 13.954c0 0.367-0.298 0.665-0.665 0.665s-0.665-0.298-0.665-0.665c0-0.367 0.298-0.665 0.665-0.665s0.665 0.298 0.665 0.665z"></path>
<path fill="#bac5f4" d="M45.712 26.502c0 0.98-0.794 1.774-1.774 1.774s-1.774-0.794-1.774-1.774c0-0.98 0.794-1.774 1.774-1.774s1.774 0.794 1.774 1.774z"></path>
<path fill="#bac5f4" d="M1.994 5.529c0 0.367-0.298 0.665-0.665 0.665s-0.665-0.298-0.665-0.665c0-0.367 0.298-0.665 0.665-0.665s0.665 0.298 0.665 0.665z"></path>
<path fill="#e1e6fb" d="M15.561 26.369c0 1.739-1.409 3.148-3.148 3.148s-3.148-1.409-3.148-3.148c0-1.739 1.409-3.148 3.148-3.148s3.148 1.409 3.148 3.148z"></path>
<path fill="#e1e6fb" d="M35.337 28.896c0 1.175-0.953 2.128-2.128 2.128s-2.128-0.953-2.128-2.128c0-1.175 0.953-2.128 2.128-2.128s2.128 0.953 2.128 2.128z"></path>
<path fill="#e1e6fb" d="M42.52 17.9c0 0.637-0.516 1.153-1.153 1.153s-1.153-0.516-1.153-1.153c0-0.637 0.516-1.153 1.153-1.153s1.153 0.516 1.153 1.153z"></path>
<path fill="#e1e6fb" d="M35.071 7.525c0 1.273-1.032 2.306-2.306 2.306s-2.306-1.032-2.306-2.306c0-1.273 1.032-2.306 2.306-2.306s2.306 1.032 2.306 2.306z"></path>
<path fill="#e1e6fb" d="M12.724 1.362c0 0.612-0.496 1.108-1.108 1.108s-1.108-0.496-1.108-1.108c0-0.612 0.496-1.108 1.108-1.108s1.108 0.496 1.108 1.108z"></path>
<path fill="#e1e6fb" d="M9.177 23.442c0 0.612-0.496 1.108-1.108 1.108s-1.108-0.496-1.108-1.108c0-0.612 0.496-1.108 1.108-1.108s1.108 0.496 1.108 1.108z"></path>
<path fill="#bac5f4" d="M44.914 10.584c0 0.612-0.496 1.108-1.108 1.108s-1.108-0.496-1.108-1.108c0-0.612 0.496-1.108 1.108-1.108s1.108 0.496 1.108 1.108z"></path>
<path fill="#bac5f4" d="M43.229 29.384c0 0.661-0.536 1.197-1.197 1.197s-1.197-0.536-1.197-1.197c0-0.661 0.536-1.197 1.197-1.197s1.197 0.536 1.197 1.197z"></path>
<path fill="#bac5f4" d="M45.357 30.005c0 0.367-0.298 0.665-0.665 0.665s-0.665-0.298-0.665-0.665c0-0.367 0.298-0.665 0.665-0.665s0.665 0.298 0.665 0.665z"></path>
<path fill="#4c6796" d="M8.402 19.918h2.609c0.336 0 0.609 0.273 0.609 0.609v0.305c0 0.336-0.273 0.609-0.609 0.609h-2.609c-0.336 0-0.609-0.273-0.609-0.609v-0.305c0-0.336 0.273-0.609 0.609-0.609z"></path>
<path fill="#4c6796" d="M12.229 19.918h2.609c0.336 0 0.609 0.273 0.609 0.609v0.305c0 0.336-0.273 0.609-0.609 0.609h-2.609c-0.336 0-0.609-0.273-0.609-0.609v-0.305c0-0.336 0.273-0.609 0.609-0.609z"></path>
<path fill="#000" opacity="0.1" d="M12.229 19.918h2.609c0.336 0 0.609 0.273 0.609 0.609v0.305c0 0.336-0.273 0.609-0.609 0.609h-2.609c-0.336 0-0.609-0.273-0.609-0.609v-0.305c0-0.336 0.273-0.609 0.609-0.609z"></path>
<path fill="#4c6796" d="M16.055 19.918h2.609c0.336 0 0.609 0.273 0.609 0.609v0.305c0 0.336-0.273 0.609-0.609 0.609h-2.609c-0.336 0-0.609-0.273-0.609-0.609v-0.305c0-0.336 0.273-0.609 0.609-0.609z"></path>
<path fill="#4c6796" d="M19.882 19.918h2.609c0.336 0 0.609 0.273 0.609 0.609v0.305c0 0.336-0.273 0.609-0.609 0.609h-2.609c-0.336 0-0.609-0.273-0.609-0.609v-0.305c0-0.336 0.273-0.609 0.609-0.609z"></path>
<path fill="#000" opacity="0.1" d="M19.882 19.918h2.609c0.336 0 0.609 0.273 0.609 0.609v0.305c0 0.336-0.273 0.609-0.609 0.609h-2.609c-0.336 0-0.609-0.273-0.609-0.609v-0.305c0-0.336 0.273-0.609 0.609-0.609z"></path>
<path fill="#4c6796" d="M23.709 19.918h2.609c0.336 0 0.609 0.273 0.609 0.609v0.305c0 0.336-0.273 0.609-0.609 0.609h-2.609c-0.336 0-0.609-0.273-0.609-0.609v-0.305c0-0.336 0.273-0.609 0.609-0.609z"></path>
<path fill="#4c6796" d="M27.535 19.918h2.609c0.336 0 0.609 0.273 0.609 0.609v0.305c0 0.336-0.273 0.609-0.609 0.609h-2.609c-0.336 0-0.609-0.273-0.609-0.609v-0.305c0-0.336 0.273-0.609 0.609-0.609z"></path>
<path fill="#000" opacity="0.1" d="M27.535 19.918h2.609c0.336 0 0.609 0.273 0.609 0.609v0.305c0 0.336-0.273 0.609-0.609 0.609h-2.609c-0.336 0-0.609-0.273-0.609-0.609v-0.305c0-0.336 0.273-0.609 0.609-0.609z"></path>
<path fill="#4c6796" d="M30.144 19.918h-2.609c-0.336 0-0.609-0.273-0.609-0.609v-0.305c0-0.336 0.273-0.609 0.609-0.609h2.609c0.336 0 0.609 0.273 0.609 0.609v0.305c0 0.336-0.273 0.609-0.609 0.609z"></path>
<path fill="#4c6796" d="M26.317 19.918h-2.609c-0.336 0-0.609-0.273-0.609-0.609v-0.305c0-0.336 0.273-0.609 0.609-0.609h2.609c0.336 0 0.609 0.273 0.609 0.609v0.305c0 0.336-0.273 0.609-0.609 0.609z"></path>
<path fill="#000" opacity="0.1" d="M26.317 19.918h-2.609c-0.336 0-0.609-0.273-0.609-0.609v-0.305c0-0.336 0.273-0.609 0.609-0.609h2.609c0.336 0 0.609 0.273 0.609 0.609v0.305c0 0.336-0.273 0.609-0.609 0.609z"></path>
<path fill="#4c6796" d="M22.491 19.918h-2.609c-0.336 0-0.609-0.273-0.609-0.609v-0.305c0-0.336 0.273-0.609 0.609-0.609h2.609c0.336 0 0.609 0.273 0.609 0.609v0.305c0 0.336-0.273 0.609-0.609 0.609z"></path>
<path fill="#4c6796" d="M18.664 19.918h-2.609c-0.336 0-0.609-0.273-0.609-0.609v-0.305c0-0.336 0.273-0.609 0.609-0.609h2.609c0.336 0 0.609 0.273 0.609 0.609v0.305c0 0.336-0.273 0.609-0.609 0.609z"></path>
<path fill="#000" opacity="0.1" d="M18.664 19.918h-2.609c-0.336 0-0.609-0.273-0.609-0.609v-0.305c0-0.336 0.273-0.609 0.609-0.609h2.609c0.336 0 0.609 0.273 0.609 0.609v0.305c0 0.336-0.273 0.609-0.609 0.609z"></path>
<path fill="#4c6796" d="M14.837 19.918h-2.609c-0.336 0-0.609-0.273-0.609-0.609v-0.305c0-0.336 0.273-0.609 0.609-0.609h2.609c0.336 0 0.609 0.273 0.609 0.609v0.305c0 0.336-0.273 0.609-0.609 0.609z"></path>
<path fill="#4c6796" d="M11.011 19.918h-2.609c-0.336 0-0.609-0.273-0.609-0.609v-0.305c0-0.336 0.273-0.609 0.609-0.609h2.609c0.336 0 0.609 0.273 0.609 0.609v0.305c0 0.336-0.273 0.609-0.609 0.609z"></path>
<path fill="#000" opacity="0.1" d="M11.011 19.918h-2.609c-0.336 0-0.609-0.273-0.609-0.609v-0.305c0-0.336 0.273-0.609 0.609-0.609h2.609c0.336 0 0.609 0.273 0.609 0.609v0.305c0 0.336-0.273 0.609-0.609 0.609z"></path>
<path fill="#4c6796" d="M8.402 16.872h2.609c0.336 0 0.609 0.273 0.609 0.609v0.305c0 0.336-0.273 0.609-0.609 0.609h-2.609c-0.336 0-0.609-0.273-0.609-0.609v-0.305c0-0.336 0.273-0.609 0.609-0.609z"></path>
<path fill="#4c6796" d="M12.229 16.872h2.609c0.336 0 0.609 0.273 0.609 0.609v0.305c0 0.336-0.273 0.609-0.609 0.609h-2.609c-0.336 0-0.609-0.273-0.609-0.609v-0.305c0-0.336 0.273-0.609 0.609-0.609z"></path>
<path fill="#000" opacity="0.1" d="M12.229 16.872h2.609c0.336 0 0.609 0.273 0.609 0.609v0.305c0 0.336-0.273 0.609-0.609 0.609h-2.609c-0.336 0-0.609-0.273-0.609-0.609v-0.305c0-0.336 0.273-0.609 0.609-0.609z"></path>
<path fill="#4c6796" d="M16.055 16.872h2.609c0.336 0 0.609 0.273 0.609 0.609v0.305c0 0.336-0.273 0.609-0.609 0.609h-2.609c-0.336 0-0.609-0.273-0.609-0.609v-0.305c0-0.336 0.273-0.609 0.609-0.609z"></path>
<path fill="#4c6796" d="M19.882 16.872h2.609c0.336 0 0.609 0.273 0.609 0.609v0.305c0 0.336-0.273 0.609-0.609 0.609h-2.609c-0.336 0-0.609-0.273-0.609-0.609v-0.305c0-0.336 0.273-0.609 0.609-0.609z"></path>
<path fill="#000" opacity="0.1" d="M19.882 16.872h2.609c0.336 0 0.609 0.273 0.609 0.609v0.305c0 0.336-0.273 0.609-0.609 0.609h-2.609c-0.336 0-0.609-0.273-0.609-0.609v-0.305c0-0.336 0.273-0.609 0.609-0.609z"></path>
<path fill="#4c6796" d="M23.709 16.872h2.609c0.336 0 0.609 0.273 0.609 0.609v0.305c0 0.336-0.273 0.609-0.609 0.609h-2.609c-0.336 0-0.609-0.273-0.609-0.609v-0.305c0-0.336 0.273-0.609 0.609-0.609z"></path>
<path fill="#4c6796" d="M27.535 16.872h2.609c0.336 0 0.609 0.273 0.609 0.609v0.305c0 0.336-0.273 0.609-0.609 0.609h-2.609c-0.336 0-0.609-0.273-0.609-0.609v-0.305c0-0.336 0.273-0.609 0.609-0.609z"></path>
<path fill="#000" opacity="0.1" d="M27.535 16.872h2.609c0.336 0 0.609 0.273 0.609 0.609v0.305c0 0.336-0.273 0.609-0.609 0.609h-2.609c-0.336 0-0.609-0.273-0.609-0.609v-0.305c0-0.336 0.273-0.609 0.609-0.609z"></path>
<path fill="#4c6796" d="M30.144 16.872h-2.609c-0.336 0-0.609-0.273-0.609-0.609v-0.305c0-0.336 0.273-0.609 0.609-0.609h2.609c0.336 0 0.609 0.273 0.609 0.609v0.305c0 0.336-0.273 0.609-0.609 0.609z"></path>
<path fill="#4c6796" d="M26.317 16.872h-2.609c-0.336 0-0.609-0.273-0.609-0.609v-0.305c0-0.336 0.273-0.609 0.609-0.609h2.609c0.336 0 0.609 0.273 0.609 0.609v0.305c0 0.336-0.273 0.609-0.609 0.609z"></path>
<path fill="#000" opacity="0.1" d="M26.317 16.872h-2.609c-0.336 0-0.609-0.273-0.609-0.609v-0.305c0-0.336 0.273-0.609 0.609-0.609h2.609c0.336 0 0.609 0.273 0.609 0.609v0.305c0 0.336-0.273 0.609-0.609 0.609z"></path>
<path fill="#4c6796" d="M22.491 16.872h-2.609c-0.336 0-0.609-0.273-0.609-0.609v-0.305c0-0.336 0.273-0.609 0.609-0.609h2.609c0.336 0 0.609 0.273 0.609 0.609v0.305c0 0.336-0.273 0.609-0.609 0.609z"></path>
<path fill="#4c6796" d="M18.664 16.872h-2.609c-0.336 0-0.609-0.273-0.609-0.609v-0.305c0-0.336 0.273-0.609 0.609-0.609h2.609c0.336 0 0.609 0.273 0.609 0.609v0.305c0 0.336-0.273 0.609-0.609 0.609z"></path>
<path fill="#000" opacity="0.1" d="M18.664 16.872h-2.609c-0.336 0-0.609-0.273-0.609-0.609v-0.305c0-0.336 0.273-0.609 0.609-0.609h2.609c0.336 0 0.609 0.273 0.609 0.609v0.305c0 0.336-0.273 0.609-0.609 0.609z"></path>
<path fill="#4c6796" d="M14.837 16.872h-2.609c-0.336 0-0.609-0.273-0.609-0.609v-0.305c0-0.336 0.273-0.609 0.609-0.609h2.609c0.336 0 0.609 0.273 0.609 0.609v0.305c0 0.336-0.273 0.609-0.609 0.609z"></path>
<path fill="#4c6796" d="M11.011 16.872h-2.609c-0.336 0-0.609-0.273-0.609-0.609v-0.305c0-0.336 0.273-0.609 0.609-0.609h2.609c0.336 0 0.609 0.273 0.609 0.609v0.305c0 0.336-0.273 0.609-0.609 0.609z"></path>
<path fill="#000" opacity="0.1" d="M11.011 16.872h-2.609c-0.336 0-0.609-0.273-0.609-0.609v-0.305c0-0.336 0.273-0.609 0.609-0.609h2.609c0.336 0 0.609 0.273 0.609 0.609v0.305c0 0.336-0.273 0.609-0.609 0.609z"></path>
<path fill="#4c6796" d="M8.402 13.9h2.609c0.336 0 0.609 0.273 0.609 0.609v0.305c0 0.336-0.273 0.609-0.609 0.609h-2.609c-0.336 0-0.609-0.273-0.609-0.609v-0.305c0-0.336 0.273-0.609 0.609-0.609z"></path>
<path fill="#4c6796" d="M12.229 13.9h2.609c0.336 0 0.609 0.273 0.609 0.609v0.305c0 0.336-0.273 0.609-0.609 0.609h-2.609c-0.336 0-0.609-0.273-0.609-0.609v-0.305c0-0.336 0.273-0.609 0.609-0.609z"></path>
<path fill="#000" opacity="0.1" d="M12.229 13.9h2.609c0.336 0 0.609 0.273 0.609 0.609v0.305c0 0.336-0.273 0.609-0.609 0.609h-2.609c-0.336 0-0.609-0.273-0.609-0.609v-0.305c0-0.336 0.273-0.609 0.609-0.609z"></path>
<path fill="#4c6796" d="M16.055 13.9h2.609c0.336 0 0.609 0.273 0.609 0.609v0.305c0 0.336-0.273 0.609-0.609 0.609h-2.609c-0.336 0-0.609-0.273-0.609-0.609v-0.305c0-0.336 0.273-0.609 0.609-0.609z"></path>
<path fill="#4c6796" d="M19.882 13.9h2.609c0.336 0 0.609 0.273 0.609 0.609v0.305c0 0.336-0.273 0.609-0.609 0.609h-2.609c-0.336 0-0.609-0.273-0.609-0.609v-0.305c0-0.336 0.273-0.609 0.609-0.609z"></path>
<path fill="#000" opacity="0.1" d="M19.882 13.9h2.609c0.336 0 0.609 0.273 0.609 0.609v0.305c0 0.336-0.273 0.609-0.609 0.609h-2.609c-0.336 0-0.609-0.273-0.609-0.609v-0.305c0-0.336 0.273-0.609 0.609-0.609z"></path>
<path fill="#4c6796" d="M23.709 13.9h2.609c0.336 0 0.609 0.273 0.609 0.609v0.305c0 0.336-0.273 0.609-0.609 0.609h-2.609c-0.336 0-0.609-0.273-0.609-0.609v-0.305c0-0.336 0.273-0.609 0.609-0.609z"></path>
<path fill="#4c6796" d="M27.535 13.9h2.609c0.336 0 0.609 0.273 0.609 0.609v0.305c0 0.336-0.273 0.609-0.609 0.609h-2.609c-0.336 0-0.609-0.273-0.609-0.609v-0.305c0-0.336 0.273-0.609 0.609-0.609z"></path>
<path fill="#000" opacity="0.1" d="M27.535 13.9h2.609c0.336 0 0.609 0.273 0.609 0.609v0.305c0 0.336-0.273 0.609-0.609 0.609h-2.609c-0.336 0-0.609-0.273-0.609-0.609v-0.305c0-0.336 0.273-0.609 0.609-0.609z"></path>
<path fill="#4c6796" d="M30.144 13.9h-2.609c-0.336 0-0.609-0.273-0.609-0.609v-0.305c0-0.336 0.273-0.609 0.609-0.609h2.609c0.336 0 0.609 0.273 0.609 0.609v0.305c0 0.336-0.273 0.609-0.609 0.609z"></path>
<path fill="#4c6796" d="M26.317 13.9h-2.609c-0.336 0-0.609-0.273-0.609-0.609v-0.305c0-0.336 0.273-0.609 0.609-0.609h2.609c0.336 0 0.609 0.273 0.609 0.609v0.305c0 0.336-0.273 0.609-0.609 0.609z"></path>
<path fill="#000" opacity="0.1" d="M26.317 13.9h-2.609c-0.336 0-0.609-0.273-0.609-0.609v-0.305c0-0.336 0.273-0.609 0.609-0.609h2.609c0.336 0 0.609 0.273 0.609 0.609v0.305c0 0.336-0.273 0.609-0.609 0.609z"></path>
<path fill="#4c6796" d="M22.491 13.9h-2.609c-0.336 0-0.609-0.273-0.609-0.609v-0.305c0-0.336 0.273-0.609 0.609-0.609h2.609c0.336 0 0.609 0.273 0.609 0.609v0.305c0 0.336-0.273 0.609-0.609 0.609z"></path>
<path fill="#4c6796" d="M18.664 13.9h-2.609c-0.336 0-0.609-0.273-0.609-0.609v-0.305c0-0.336 0.273-0.609 0.609-0.609h2.609c0.336 0 0.609 0.273 0.609 0.609v0.305c0 0.336-0.273 0.609-0.609 0.609z"></path>
<path fill="#000" opacity="0.1" d="M18.664 13.9h-2.609c-0.336 0-0.609-0.273-0.609-0.609v-0.305c0-0.336 0.273-0.609 0.609-0.609h2.609c0.336 0 0.609 0.273 0.609 0.609v0.305c0 0.336-0.273 0.609-0.609 0.609z"></path>
<path fill="#4c6796" d="M14.837 13.9h-2.609c-0.336 0-0.609-0.273-0.609-0.609v-0.305c0-0.336 0.273-0.609 0.609-0.609h2.609c0.336 0 0.609 0.273 0.609 0.609v0.305c0 0.336-0.273 0.609-0.609 0.609z"></path>
<path fill="#4c6796" d="M11.011 13.9h-2.609c-0.336 0-0.609-0.273-0.609-0.609v-0.305c0-0.336 0.273-0.609 0.609-0.609h2.609c0.336 0 0.609 0.273 0.609 0.609v0.305c0 0.336-0.273 0.609-0.609 0.609z"></path>
<path fill="#000" opacity="0.1" d="M11.011 13.9h-2.609c-0.336 0-0.609-0.273-0.609-0.609v-0.305c0-0.336 0.273-0.609 0.609-0.609h2.609c0.336 0 0.609 0.273 0.609 0.609v0.305c0 0.336-0.273 0.609-0.609 0.609z"></path>
<path fill="#4c6796" d="M8.402 10.853h2.609c0.336 0 0.609 0.273 0.609 0.609v0.305c0 0.336-0.273 0.609-0.609 0.609h-2.609c-0.336 0-0.609-0.273-0.609-0.609v-0.305c0-0.336 0.273-0.609 0.609-0.609z"></path>
<path fill="#4c6796" d="M12.229 10.853h2.609c0.336 0 0.609 0.273 0.609 0.609v0.305c0 0.336-0.273 0.609-0.609 0.609h-2.609c-0.336 0-0.609-0.273-0.609-0.609v-0.305c0-0.336 0.273-0.609 0.609-0.609z"></path>
<path fill="#000" opacity="0.1" d="M12.229 10.853h2.609c0.336 0 0.609 0.273 0.609 0.609v0.305c0 0.336-0.273 0.609-0.609 0.609h-2.609c-0.336 0-0.609-0.273-0.609-0.609v-0.305c0-0.336 0.273-0.609 0.609-0.609z"></path>
<path fill="#4c6796" d="M16.055 10.853h2.609c0.336 0 0.609 0.273 0.609 0.609v0.305c0 0.336-0.273 0.609-0.609 0.609h-2.609c-0.336 0-0.609-0.273-0.609-0.609v-0.305c0-0.336 0.273-0.609 0.609-0.609z"></path>
<path fill="#4c6796" d="M19.882 10.853h2.609c0.336 0 0.609 0.273 0.609 0.609v0.305c0 0.336-0.273 0.609-0.609 0.609h-2.609c-0.336 0-0.609-0.273-0.609-0.609v-0.305c0-0.336 0.273-0.609 0.609-0.609z"></path>
<path fill="#000" opacity="0.1" d="M19.882 10.853h2.609c0.336 0 0.609 0.273 0.609 0.609v0.305c0 0.336-0.273 0.609-0.609 0.609h-2.609c-0.336 0-0.609-0.273-0.609-0.609v-0.305c0-0.336 0.273-0.609 0.609-0.609z"></path>
<path fill="#4c6796" d="M23.709 10.853h2.609c0.336 0 0.609 0.273 0.609 0.609v0.305c0 0.336-0.273 0.609-0.609 0.609h-2.609c-0.336 0-0.609-0.273-0.609-0.609v-0.305c0-0.336 0.273-0.609 0.609-0.609z"></path>
<path fill="#4c6796" d="M27.535 10.853h2.609c0.336 0 0.609 0.273 0.609 0.609v0.305c0 0.336-0.273 0.609-0.609 0.609h-2.609c-0.336 0-0.609-0.273-0.609-0.609v-0.305c0-0.336 0.273-0.609 0.609-0.609z"></path>
<path fill="#000" opacity="0.1" d="M27.535 10.853h2.609c0.336 0 0.609 0.273 0.609 0.609v0.305c0 0.336-0.273 0.609-0.609 0.609h-2.609c-0.336 0-0.609-0.273-0.609-0.609v-0.305c0-0.336 0.273-0.609 0.609-0.609z"></path>
<path fill="#000" d="M27.238 5.779h2.906c0.336 0 0.609 0.273 0.609 0.609v0.423c0 0.336-0.273 0.609-0.609 0.609h-2.906c-0.336 0-0.609-0.273-0.609-0.609v-0.423c0-0.336 0.273-0.609 0.609-0.609z"></path>
<path fill="#4c6796" d="M29.995 7.361h-2.609c-0.336 0-0.609-0.273-0.609-0.609v-0.305c0-0.336 0.273-0.609 0.609-0.609h2.609c0.336 0 0.609 0.273 0.609 0.609v0.305c0 0.336-0.273 0.609-0.609 0.609z"></path>
<path fill="#4c6796" d="M26.317 10.853h-2.609c-0.336 0-0.609-0.273-0.609-0.609v-0.305c0-0.336 0.273-0.609 0.609-0.609h2.609c0.336 0 0.609 0.273 0.609 0.609v0.305c0 0.336-0.273 0.609-0.609 0.609z"></path>
<path fill="#000" opacity="0.1" d="M26.317 10.853h-2.609c-0.336 0-0.609-0.273-0.609-0.609v-0.305c0-0.336 0.273-0.609 0.609-0.609h2.609c0.336 0 0.609 0.273 0.609 0.609v0.305c0 0.336-0.273 0.609-0.609 0.609z"></path>
<path fill="#4c6796" d="M22.491 10.853h-2.609c-0.336 0-0.609-0.273-0.609-0.609v-0.305c0-0.336 0.273-0.609 0.609-0.609h2.609c0.336 0 0.609 0.273 0.609 0.609v0.305c0 0.336-0.273 0.609-0.609 0.609z"></path>
<path fill="#4c6796" d="M18.664 10.853h-2.609c-0.336 0-0.609-0.273-0.609-0.609v-0.305c0-0.336 0.273-0.609 0.609-0.609h2.609c0.336 0 0.609 0.273 0.609 0.609v0.305c0 0.336-0.273 0.609-0.609 0.609z"></path>
<path fill="#000" opacity="0.1" d="M18.664 10.853h-2.609c-0.336 0-0.609-0.273-0.609-0.609v-0.305c0-0.336 0.273-0.609 0.609-0.609h2.609c0.336 0 0.609 0.273 0.609 0.609v0.305c0 0.336-0.273 0.609-0.609 0.609z"></path>
<path fill="#4c6796" d="M14.837 10.853h-2.609c-0.336 0-0.609-0.273-0.609-0.609v-0.305c0-0.336 0.273-0.609 0.609-0.609h2.609c0.336 0 0.609 0.273 0.609 0.609v0.305c0 0.336-0.273 0.609-0.609 0.609z"></path>
<path fill="#4c6796" d="M11.011 10.853h-2.609c-0.336 0-0.609-0.273-0.609-0.609v-0.305c0-0.336 0.273-0.609 0.609-0.609h2.609c0.336 0 0.609 0.273 0.609 0.609v0.305c0 0.336-0.273 0.609-0.609 0.609z"></path>
<path fill="#000" opacity="0.1" d="M11.011 10.853h-2.609c-0.336 0-0.609-0.273-0.609-0.609v-0.305c0-0.336 0.273-0.609 0.609-0.609h2.609c0.336 0 0.609 0.273 0.609 0.609v0.305c0 0.336-0.273 0.609-0.609 0.609z"></path>
<path fill="#4c6796" d="M5.776 18.63c0 0.139 0.251 0.54 0.251 0.54s0.251-0.402 0.251-0.54c0-0.139-0.112-0.251-0.251-0.251s-0.251 0.112-0.251 0.251v0z"></path>
<path fill="#4c6796" d="M5.362 19.397c0.074 0.116 0.504 0.317 0.504 0.317s-0.008-0.473-0.083-0.59c-0.045-0.070-0.123-0.115-0.211-0.115-0.138 0-0.251 0.112-0.251 0.251 0 0.051 0.015 0.098 0.041 0.138l-0.001-0.001z"></path>
<path fill="#4c6796" d="M5.38 20.708c0.124 0.062 0.594 0.019 0.594 0.019s-0.246-0.405-0.369-0.467c-0.033-0.017-0.072-0.027-0.113-0.027-0.138 0-0.251 0.112-0.251 0.251 0 0.097 0.055 0.182 0.136 0.223l0.001 0.001z"></path>
<path fill="#4c6796" d="M5.617 21.697c0.111 0.083 0.583 0.12 0.583 0.12s-0.174-0.44-0.285-0.523c-0.039-0.026-0.086-0.041-0.138-0.041-0.138 0-0.251 0.112-0.251 0.251 0 0.078 0.035 0.147 0.091 0.193l0 0z"></path>
<path fill="#4c6796" d="M6.392 19.741c-0.099 0.096-0.562 0.197-0.562 0.197s0.113-0.46 0.212-0.557c0.045-0.043 0.106-0.069 0.173-0.069 0.138 0 0.251 0.112 0.251 0.251 0 0.070-0.028 0.133-0.074 0.178l-0 0z"></path>
<path fill="#4c6796" d="M6.655 20.9c-0.124 0.062-0.594 0.019-0.594 0.019s0.246-0.405 0.369-0.467c0.031-0.014 0.067-0.023 0.105-0.023 0.138 0 0.251 0.112 0.251 0.251 0 0.094-0.052 0.176-0.129 0.219l-0.001 0.001z"></path>
<path fill="#4c6796" d="M6.755 22.063c-0.111 0.083-0.583 0.12-0.583 0.12s0.174-0.44 0.285-0.523c0.039-0.026 0.086-0.041 0.138-0.041 0.138 0 0.251 0.112 0.251 0.251 0 0.078-0.035 0.147-0.091 0.193l-0 0z"></path>
<path fill="#4c6796" d="M24.016 16.36c0.461 0.514 0.743 1.197 0.743 1.945 0 0.393-0.078 0.767-0.218 1.109l0.007-0.019c-0.69 1.813 1.183 4.83 1.183 4.83s-0.020-0.003-0.057-0.010c-2.51-0.445-3.756-3.315-2.361-5.447 0.519-0.793 0.945-1.722 0.704-2.408z"></path>
<path fill="#000" opacity="0.2" d="M24.016 16.36c0.461 0.514 0.743 1.197 0.743 1.945 0 0.393-0.078 0.767-0.218 1.109l0.007-0.019c-0.69 1.813 1.183 4.83 1.183 4.83s-0.020-0.003-0.057-0.010c-2.51-0.445-3.756-3.315-2.361-5.447 0.519-0.793 0.945-1.722 0.704-2.408z"></path>
<path fill="#4c6796" d="M21.84 21.301s1.394-0.223 1.521 1.028 2.681 1.422 2.681 1.422l-0.048 0.032c-2.109 1.384-4.124 0.882-3.821-0.956 0.113-0.683 0.103-1.37-0.333-1.526z"></path>
<path fill="#f5f5f5" opacity="0.2" d="M21.84 21.301s1.394-0.223 1.521 1.028 2.681 1.422 2.681 1.422l-0.048 0.032c-2.109 1.384-4.124 0.882-3.821-0.956 0.113-0.683 0.103-1.37-0.333-1.526z"></path>
<path fill="#bac5f4" d="M32.447 24.177s-2.069-0.414-2.621-0.966-3.035-1.518-3.311-0.828-3.725 3.036-1.378 3.45 5.519 0.552 6.208 0.276 1.102-1.932 1.102-1.932z"></path>
<path fill="#000" opacity="0.2" d="M25.137 25.577c2.345 0.414 5.519 0.552 6.208 0.276 0.525-0.21 0.892-1.219 1.035-1.69l0.069 0.014s-0.414 1.655-1.104 1.932-3.864 0.138-6.208-0.276c-0.677-0.12-0.87-0.4-0.798-0.755 0.055 0.232 0.292 0.409 0.798 0.499z"></path>
<path fill="##808080" opacity="0.05" d="M36.634 5.801c-0.039-0.095-0.097-0.174-0.17-0.237l-0.001-0.001c-0.555-0.506-1.454-0.353-2.143-0.662-0.159-0.071-0.322-0.17-0.494-0.143-0.241 0.037-0.465 0.312-0.675 0.19l0.015 0.046-0.015-0.008 0.155 0.47c0.054 0.197 0.135 0.369 0.241 0.523l-0.004-0.006c-0.285 0.249-0.464 0.614-0.464 1.020 0 0.544 0.32 1.012 0.783 1.227l0.008 0.003c0.007 0.016 0.014 0.032 0.022 0.048l0.020 0.008c0.042 0.094 0.077 0.203 0.1 0.318l0.002 0.010c-0.179 0.025-0.49 0.223-0.797 0.514l-0.612-0.021c-0.415-0.014-0.795-0.152-1.107-0.379l0.006 0.004-1.834-1.317c-0.136 0.014-0.258 0.070-0.352 0.156l0.001-0c-0.227-0.237-0.42-0.483-0.404-0.632 0 0-0.852-1.595-1.162-0.798s0.581 1.635 0.581 1.635l0.565 0.732c-0.021 0.112-0.036 0.246-0.042 0.381l-0 0.007c0.697 0.798 3.137 1.519 3.137 1.519l0.38 0.019 0.002 0.019c-0.022 0.089-0.034 0.192-0.034 0.297 0 0.003 0 0.005 0 0.008v-0 0.076c0.019 1.272 0.194 5.164 0.194 5.164 0.034-0.015 0.069-0.029 0.105-0.042l-0.027 0.346s-1.627 0.228-2.828 0.684-1.239 0.988-1.239 0.988v4.691c-0.343 0.176-0.884 0.409-1.162 0.283-0.302-0.134-0.467-0.022-0.497 0.096v0c-0.003 0.011-0.004 0.023-0.004 0.035s0.002 0.025 0.005 0.037l-0-0.001c0.003 0.011 0.007 0.021 0.012 0.031l-0-0.001v0.002c0.006 0.010 0.013 0.019 0.021 0.027l0 0c0.116 0.114 2.634 1.101 3.215 0.949 0.021-0.006 0.038-0.012 0.055-0.019l-0.003 0.001c0.006-0.002 0.010-0.005 0.016-0.008s0.022-0.010 0.032-0.016 0.012-0.008 0.017-0.012 0.017-0.012 0.026-0.018c0.006-0.005 0.011-0.009 0.016-0.014l0-0c0.005-0.005 0.015-0.013 0.022-0.021s0.010-0.011 0.014-0.017 0.013-0.015 0.019-0.023 0.008-0.012 0.013-0.018 0.012-0.017 0.017-0.026 0.007-0.013 0.010-0.019 0.010-0.019 0.015-0.029c0.003-0.005 0.006-0.012 0.008-0.018l0-0.001c0.003-0.007 0.009-0.021 0.013-0.032s0.004-0.013 0.007-0.020 0.008-0.022 0.011-0.035l0.001-0.002c0.001-0.007 0.003-0.013 0.005-0.019l-0 0c0.003-0.013 0.007-0.026 0.010-0.037 0.001-0.007 0.002-0.013 0.004-0.019l-0 0.001c0.003-0.014 0.006-0.028 0.008-0.042-0-0.001-0-0.002-0-0.003 0-0.005 0.001-0.009 0.003-0.014l-0 0c0.003-0.015 0.005-0.031 0.007-0.046v-0.013c0.002-0.017 0.004-0.033 0.005-0.050v-0.010q0.002-0.027 0.003-0.054v-0.069c-0.001-0.239-0.028-0.471-0.078-0.695l0.004 0.021 0.146-3.995c0.101 0.002 0.22 0.003 0.339 0.003 0.683 0 1.359-0.031 2.027-0.093l-0.086 0.006 0.083 1.907s0 1.253 0.426 1.823c0.365 0.487 0.786 2.643 0.9 3.255-0.156 0.297-0.456 0.669-0.977 0.656 0 0-0.981-0.085-0.926 0.186v0c0.002 0.008 0.004 0.015 0.007 0.022l-0-0.001c0.004 0.009 0.007 0.016 0.011 0.024l-0.001-0.001c0.004 0.007 0.009 0.014 0.014 0.022l0.003 0.004q0.008 0.012 0.019 0.025v0.002c0.007 0.008 0.014 0.016 0.022 0.023l0.007 0.007c0.009 0.009 0.018 0.018 0.028 0.027 0.503 0.456 3.447 0.532 3.447 0.532v-0.021c0-0.132-0.019-0.824-0.195-1.345h0.041s-0.426-3.835-0.775-4.291c0 0-0.093-2.023 0.116-3.29l0.037-0.014c0.976-0.365 1.046-1.263 0.945-1.923 0.186 0.059 0.294 0.1 0.294 0.1s-0.003-0.029-0.010-0.079l0.010 0.004s-0.019-0.121-0.049-0.309c-0.070-0.518-0.205-1.422-0.349-1.849-0.023-0.094-0.046-0.174-0.066-0.235-0.077-0.227-0.137-0.494-0.169-0.77l-0.002-0.019c-0.038-0.314-0.059-0.677-0.060-1.046v-0.001c0.003-0.495 0.042-0.979 0.114-1.451l-0.007 0.056c0.060-0.349 0.099-0.758 0.108-1.174l0-0.009c0.001-0.017 0.001-0.037 0.001-0.057 0-0.098-0.009-0.194-0.026-0.287l0.001 0.010c-0.052-0.237-0.28-0.39-0.518-0.489-0.015-0.006-0.031-0.011-0.046-0.017 0.006-0.090 0.013-0.191 0.023-0.297 0.041 0.028 0.091 0.045 0.145 0.045 0.018 0 0.036-0.002 0.054-0.006l-0.002 0c0.102-0.022 0.175-0.107 0.24-0.186 0.343-0.422 0.696-0.861 0.828-1.385 0.047-0.2 0.075-0.429 0.075-0.664 0-0.017-0-0.034-0-0.052l0 0.003v-0.039c0.001-0.017 0.002-0.036 0.002-0.056 0-0.075-0.011-0.148-0.031-0.217l0.001 0.005z"></path>
<path fill="#f7c4a7" d="M33.509 7.856s0.52 0.78 0.409 1.152 1.226 0.149 1.226 0.149 0.037-1.449 0.297-1.783-1.932 0.483-1.932 0.483z"></path>
<path fill="#f7c4a7" d="M30.072 8.358s-1.077-0.892-1.040-1.226c0 0-0.817-1.56-1.115-0.78s0.557 1.598 0.557 1.598l1.040 1.375z"></path>
<path fill="#535461" d="M28.976 22.346s-1.003 0.632-1.412 0.446-0.557 0.111-0.446 0.223 2.526 1.077 3.084 0.929 0.274-1.366 0.274-1.366z"></path>
<path fill="#535461" d="M34.289 25.058s-0.241 1.022-1.077 1.003c0 0-1.263-0.111-0.78 0.334s3.306 0.52 3.306 0.52 0-1.523-0.52-1.858-0.929 0-0.929 0z"></path>
<path fill="#575988" d="M32.766 17.85l0.111 2.601s0 1.226 0.409 1.783 0.892 3.344 0.892 3.344h1.412s-0.409-3.752-0.743-4.198c0 0-0.149-3.306 0.371-4.050z"></path>
<path fill="#000" opacity="0.1" d="M32.766 17.85l0.111 2.601s0 1.226 0.409 1.783 0.892 3.344 0.892 3.344h1.412s-0.409-3.752-0.743-4.198c0 0-0.149-3.306 0.371-4.050z"></path>
<path fill="#575988" d="M35.701 15.51s0.854 2.043-0.706 2.638-4.384 0.52-4.384 0.52l-0.149 4.309s-1.746 0.223-1.783-0.334v-4.718s0.037-0.52 1.189-0.966 2.712-0.669 2.712-0.669l0.074-0.966z"></path>
<path fill="#000" opacity="0.1" d="M34.332 8.778c0.059-0.007 0.127-0.011 0.196-0.011 0.244 0 0.477 0.049 0.689 0.139l-0.012-0.004c0.228 0.096 0.446 0.246 0.496 0.478 0.059 0.274-0.006 0.889-0.081 1.41-0.065 0.423-0.103 0.912-0.103 1.409 0 0.371 0.021 0.738 0.061 1.098l-0.004-0.044c0.037 0.341 0.091 0.639 0.163 0.772 0.223 0.409 0.446 2.341 0.446 2.341s-2.452-0.929-3.678-0.371c0 0-0.167-3.808-0.186-5.053-0.014-0.964 1.207-2.062 1.616-2.099 0.24-0.022 0.158-0.038 0.396-0.062z"></path>
<path fill="#f45c5e" d="M34.332 8.704c0.059-0.007 0.127-0.011 0.196-0.011 0.244 0 0.477 0.049 0.689 0.139l-0.012-0.004c0.228 0.096 0.446 0.246 0.496 0.478 0.059 0.274-0.006 0.889-0.081 1.41-0.065 0.423-0.103 0.912-0.103 1.409 0 0.371 0.021 0.738 0.061 1.098l-0.004-0.044c0.032 0.288 0.090 0.549 0.171 0.8l-0.008-0.028c0.167 0.502 0.446 2.341 0.446 2.341s-2.452-0.929-3.678-0.371c0 0-0.167-3.808-0.186-5.053-0.014-0.964 1.207-2.062 1.616-2.099 0.24-0.022 0.158-0.038 0.396-0.062z"></path>
<path fill="#000" opacity="0.1" d="M34.995 10.754l-2.638-0.149s-0.168-1.293 0.213-1.28l2.611 0.091s0.557 0.669-0.186 1.337z"></path>
<path fill="#f45c5e" d="M34.995 10.68l-3.009-0.149s-2.341-0.706-3.009-1.486c0 0 0.037-1.375 0.78-1.449l1.758 1.289c0.293 0.217 0.657 0.352 1.052 0.366l0.003 0 2.611 0.091s0.557 0.669-0.186 1.337z"></path>
<path fill="#000" opacity="0.1" d="M35.125 8.024c0.044-0.352 0.204-0.469 0.316-0.613 0.26-0.334-1.932 0.483-1.932 0.483 0.103 0.155 0.202 0.335 0.287 0.522l0.010 0.025c0.163 0.077 0.355 0.122 0.557 0.122v0c0.321 0 0.53-0.348 0.762-0.539z"></path>
<path fill="#f7c4a7" d="M35.701 7.188c0 0.739-0.599 1.337-1.337 1.337s-1.337-0.599-1.337-1.337c0-0.739 0.599-1.337 1.337-1.337s1.337 0.599 1.337 1.337z"></path>
<path fill="#000" opacity="0.1" d="M33.519 6.25c-0.142-0.156-0.211-0.363-0.276-0.564l-0.149-0.46c0.201 0.119 0.416-0.149 0.647-0.186 0.165-0.026 0.322 0.070 0.474 0.14 0.661 0.302 1.523 0.152 2.055 0.648 0.071 0.062 0.127 0.14 0.163 0.228l0.001 0.004c0.020 0.065 0.031 0.14 0.031 0.217 0 0.015-0 0.030-0.001 0.045l0-0.002c0 0.016 0.001 0.036 0.001 0.055 0 0.228-0.026 0.45-0.074 0.663l0.004-0.020c-0.126 0.512-0.464 0.943-0.794 1.355-0.062 0.078-0.133 0.162-0.231 0.184-0.191 0.043-0.339-0.164-0.413-0.345-0.090-0.213-0.165-0.463-0.212-0.723l-0.003-0.022c-0.013-0.117-0.044-0.223-0.091-0.321l0.003 0.006c-0.115-0.204-0.399-0.397-0.571-0.555s-0.405-0.171-0.563-0.344z"></path>
<path fill="#632652" d="M33.519 6.213c-0.142-0.156-0.211-0.363-0.276-0.564l-0.149-0.46c0.201 0.119 0.416-0.149 0.647-0.186 0.165-0.026 0.322 0.070 0.474 0.14 0.661 0.302 1.523 0.152 2.055 0.648 0.071 0.062 0.127 0.14 0.163 0.228l0.001 0.004c0.020 0.065 0.031 0.14 0.031 0.217 0 0.015-0 0.030-0.001 0.045l0-0.002c0 0.016 0.001 0.036 0.001 0.055 0 0.228-0.026 0.45-0.074 0.663l0.004-0.020c-0.126 0.512-0.464 0.943-0.794 1.355-0.062 0.078-0.133 0.162-0.231 0.184-0.191 0.043-0.339-0.164-0.413-0.345-0.090-0.213-0.165-0.463-0.212-0.723l-0.003-0.022c-0.013-0.117-0.044-0.223-0.091-0.321l0.003 0.006c-0.115-0.204-0.399-0.397-0.571-0.555s-0.405-0.171-0.563-0.344z"></path>
<path fill="#f7c4a7" d="M34.828 7.336c0 0.133-0.050 0.241-0.111 0.241s-0.111-0.108-0.111-0.241c0-0.133 0.050-0.241 0.111-0.241s0.111 0.108 0.111 0.241z"></path>
<path fill="#000" opacity="0.1" d="M35.385 13.782s-0.074 0.223-0.446 0.186-1.449-0.111-1.449 0z"></path>
<path fill="#fff" opacity="0.5" d="M32.431 26.358c-0.050-0.039-0.088-0.092-0.108-0.153l-0.001-0.002c-0.010 0.048 0.020 0.111 0.108 0.192 0.483 0.446 3.306 0.52 3.306 0.52v-0.037c-0.018-0-2.825-0.076-3.306-0.52z"></path>
<path fill="#fff" opacity="0.5" d="M30.202 23.869c-0.557 0.149-2.972-0.817-3.084-0.929-0.014-0.015-0.025-0.033-0.031-0.053l-0-0.001c-0.003 0.011-0.005 0.024-0.005 0.037 0 0.035 0.014 0.068 0.036 0.091l-0-0c0.111 0.111 2.526 1.077 3.084 0.929 0.287-0.077 0.351-0.436 0.346-0.767-0.006 0.308-0.080 0.621-0.346 0.692z"></path>
<path fill="#67647e" d="M20.491 23.469c0.031 0 0.056-0.025 0.056-0.056s-0.025-0.056-0.056-0.056c-0.031 0-0.056 0.025-0.056 0.056v0c0 0.031 0.025 0.056 0.056 0.056v0z"></path>
<path fill="#bac5f4" d="M5.236 22.483s1.386-0.043 1.804-0.34 2.132-0.653 2.236-0.176 2.084 2.373 0.517 2.387-3.637-0.244-4.054-0.498-0.503-1.373-0.503-1.373z"></path>
<path fill="#000" opacity="0.2" d="M9.822 24.187c-1.565 0.013-3.637-0.244-4.054-0.498-0.318-0.194-0.446-0.888-0.486-1.208h-0.046s0.088 1.118 0.505 1.372 2.489 0.512 4.052 0.501c0.452-0.004 0.608-0.164 0.599-0.402-0.061 0.142-0.233 0.232-0.57 0.235z"></path>
<path fill="#4c6796" d="M39.877 26.048h-2.609c-0.336 0-0.609-0.273-0.609-0.609v-0.305c0-0.336 0.273-0.609 0.609-0.609h2.609c0.336 0 0.609 0.273 0.609 0.609v0.305c0 0.336-0.273 0.609-0.609 0.609z"></path>
<path fill="#000" opacity="0.1" d="M39.877 26.048h-2.609c-0.336 0-0.609-0.273-0.609-0.609v-0.305c0-0.336 0.273-0.609 0.609-0.609h2.609c0.336 0 0.609 0.273 0.609 0.609v0.305c0 0.336-0.273 0.609-0.609 0.609z"></path>
<path fill="#4c6796" d="M37.269 23.076h2.609c0.336 0 0.609 0.273 0.609 0.609v0.305c0 0.336-0.273 0.609-0.609 0.609h-2.609c-0.336 0-0.609-0.273-0.609-0.609v-0.305c0-0.336 0.273-0.609 0.609-0.609z"></path>
<path fill="#4c6796" d="M39.877 23.076h-2.609c-0.336 0-0.609-0.273-0.609-0.609v-0.305c0-0.336 0.273-0.609 0.609-0.609h2.609c0.336 0 0.609 0.273 0.609 0.609v0.305c0 0.336-0.273 0.609-0.609 0.609z"></path>
<path fill="#000" opacity="0.1" d="M39.877 23.076h-2.609c-0.336 0-0.609-0.273-0.609-0.609v-0.305c0-0.336 0.273-0.609 0.609-0.609h2.609c0.336 0 0.609 0.273 0.609 0.609v0.305c0 0.336-0.273 0.609-0.609 0.609z"></path>
<path fill="#4c6796" d="M37.269 20.030h2.609c0.336 0 0.609 0.273 0.609 0.609v0.305c0 0.336-0.273 0.609-0.609 0.609h-2.609c-0.336 0-0.609-0.273-0.609-0.609v-0.305c0-0.336 0.273-0.609 0.609-0.609z"></path>
</svg>
