<svg version="1.1" xmlns="http://www.w3.org/2000/svg" viewBox="0 0 1024 1024">
<path fill="#66A274" d="M1023.71 512c0 282.77-229.23 512-512 512s-512-229.23-512-512c0-282.77 229.23-512 512-512 0.102 0 0.204 0 0.306 0h-0.016c282.645 0.165 511.71 229.332 511.71 512v0zM452.465 783.102l379.862-379.862c5.968-5.976 9.659-14.228 9.659-23.342s-3.691-17.366-9.659-23.342v0l-46.684-46.684c-5.976-5.968-14.228-9.659-23.342-9.659s-17.366 3.691-23.342 9.659v0l-309.799 309.799-144.626-144.626c-5.976-5.968-14.228-9.659-23.342-9.659s-17.366 3.691-23.342 9.659v0l-46.684 46.684c-5.968 5.976-9.659 14.228-9.659 23.342s3.691 17.366 9.659 23.342v0l214.689 214.689c5.991 6.055 14.301 9.805 23.487 9.805s17.497-3.75 23.484-9.802l0.003-0.003z"></path>
</svg>
