<svg xmlns="http://www.w3.org/2000/svg" viewBox="0 0 215.536 93.522" preserveAspectRatio="none">
<path fill="#fff" opacity="0.065" d="M104.113,1428.185c-3.164-8.813-5.219-16.536-1.711-19.052s5.98-5.928,14.459-2.439,48.258,0,48.258,0,40.644-3.911,56.161,0,53.746,3.866,64.355,2.439,30.565-6.429,29.71,6.668-5.626,25.759-6.321,33.92,6.321,29.027,6.321,29.027,3.01,21.648-14.445,19.592-31.931-4.88-50.847-2.5-68.941-4.589-68.941-4.589-23.364-4.016-35.845,0-46.1,12.658-42.865-4.045,1.954-26.1-1.617-31.288S107.277,1437,104.113,1428.185Z" transform="translate(-100.008 -1404.956)"/>
</svg>