<svg version="1.1" xmlns="http://www.w3.org/2000/svg" viewBox="0 0 32 32">
<path fill="#f45c5e" d="M31.163 25.098l-9.098-9.098 9.098-9.098c1.116-1.117 1.116-2.926 0-4.043l-2.022-2.022c-1.117-1.116-2.926-1.116-4.043-0l-9.098 9.098-9.098-9.098c-1.117-1.116-2.926-1.116-4.043-0l-2.022 2.022c-1.116 1.117-1.116 2.926-0 4.043l9.098 9.098-9.098 9.098c-1.116 1.117-1.116 2.926-0 4.043l2.022 2.022c1.117 1.116 2.926 1.116 4.043 0l9.098-9.098 9.098 9.098c1.117 1.116 2.926 1.116 4.043 0l2.022-2.022c1.116-1.117 1.116-2.926 0-4.043l-0-0z"></path>
</svg>
