<svg version="1.1" xmlns="http://www.w3.org/2000/svg" viewBox="0 0 896 1024">
<path fill="#13253341" d="M639.976 895.992v80.286c0 26.498-21.481 47.979-47.979 47.979v0h-544.018c-26.498 0-47.979-21.481-47.979-47.979v0-736.255c0-26.498 21.481-47.979 47.979-47.979h144.001v591.997c0.11 61.807 50.203 111.878 112.008 111.951h0.007zM639.976 207.973v-207.973h-335.981c-26.498 0-47.979 21.481-47.979 47.979v735.998c0 26.498 21.481 47.979 47.979 47.979v0h543.825c26.498 0 47.979-21.481 47.979-47.979v0-527.961h-207.78c-26.504-0.073-47.97-21.539-48.043-48.036v-0.007zM881.926 145.928l-131.862-131.862c-8.678-8.684-20.667-14.058-33.911-14.066h-12.141v191.98h191.98v-12.139c-0.008-13.246-5.382-25.235-14.066-33.912v0z"></path>
</svg>
