<svg xmlns="http://www.w3.org/2000/svg" viewBox="0 0 682.175 464.057">
  <g id="Group_50" data-name="Group 50" transform="translate(-619 -162)">
    <g id="bg-13" transform="translate(618.993 161.997)">
      <path id="Path_323" data-name="Path 323" d="M521,555.168s20.715-98.742,46.954-144.315,66.979-171.935,249.962-160.2,196.1,74.574,225.794,144.315,74.574,59.383,91.837,95.98,8.977,45.573,8.977,45.573Z" transform="translate(-486.418 -210.745)" fill="#f8f8ff"/>
      <path id="Path_324" data-name="Path 324" d="M521,683.644s18.644,20.715,16.572,25.549-51.1,58.693,38.668,76.646,442.612,26.239,491.638,4.143,31.763-33.144,13.81-55.931,35.216-.69,46.954-24.168A195.1,195.1,0,0,0,1144.524,665Z" transform="translate(-486.418 -339.22)" fill="#f5f5fc"/>
      <path id="Path_325" data-name="Path 325" d="M1147.186,608.7s-70.528-69.292-274.226-26.481S596.068,573.6,565.686,573.6s-31.936,80.271-31.936,80.271l614.637-18.7,1.65-5.227a18.641,18.641,0,0,0,.262-4.833l-.262-3.176a28.438,28.438,0,0,0-.394-2.845Z" transform="translate(-490.364 -309.278)" fill="#e9edfa"/>
      <path id="Path_326" data-name="Path 326" d="M505.24,645.711s-77.205-38.924,0-59.977c0,0,33.835-87.418,95.075-11.483,0,0,56.152-5.745,57.429,31.9,0,0,12.125,8.286,30.631,10.213s19.783,17.228,15.951,21.7S687.1,643.8,687.1,643.8Z" transform="translate(-470.92 -301.536)" fill="#bac6f2"/>
      <path id="Path_327" data-name="Path 327" d="M1331.814,520.278l-.062-170.064s-81.742-6.463-69.658-57.657c7.955-33.717,34.856-36.369,34.208-54.149-.47-12.843,11.207-65.432,46.491-36.783,27.876,22.635,14.777,41.3,29.174,43.951,14.742,2.714,32.73,27.51,22.731,42.052s1.139,15.081,1.139,22.352,5.911,28.414-24.085,33.835-35.809,7.2-35.809,7.2l2.52,169.235Z" transform="translate(-715.407 -193.2)" fill="#b1c1f2"/>
      <path id="Path_328" data-name="Path 328" d="M1324.328,593.991V508.41s-28.179-3.259-24.016-29.084c2.762-17.007,12.015-18.347,11.794-27.316-.159-6.477,3.867-33.006,16.026-18.554,9.612,11.414,5.1,20.832,10.054,22.172,5.082,1.381,11.283,13.879,7.837,21.212s.394,7.6.394,11.276,2.071,14.335-8.286,17.083-10.634,2.762-10.634,2.762l.166,85.76Z" transform="translate(-727.483 -266.243)" fill="#b1c1f2"/>
      <path id="Path_329" data-name="Path 329" d="M1276.836,544.9l.083-143.935s58.078-5.469,49.5-48.819c-5.655-28.552-24.768-30.8-24.306-45.842.331-10.875-7.962-55.4-33.034-31.142-19.8,19.161-10.5,34.967-20.715,37.211-10.475,2.3-23.256,23.291-16.151,35.609s-.808,12.767-.808,18.927-4.2,24.057,17.118,28.677,25.445,6.09,25.445,6.09l-1.588,143.307Z" transform="translate(-705.899 -216.359)" fill="#bac6f2"/>
      <circle id="Ellipse_377" data-name="Ellipse 377" cx="16.482" cy="16.482" r="16.482" transform="translate(201.111 134.38)" fill="#fff"/>
      <circle id="Ellipse_378" data-name="Ellipse 378" cx="16.482" cy="16.482" r="16.482" transform="translate(145.36 133.979)" fill="#fff"/>
      <circle id="Ellipse_379" data-name="Ellipse 379" cx="22.2" cy="22.2" r="22.2" transform="translate(168.133 127.558)" fill="#fff"/>
      <circle id="Ellipse_380" data-name="Ellipse 380" cx="16.482" cy="16.482" r="16.482" transform="translate(410.071 97.521)" fill="#fff"/>
      <circle id="Ellipse_381" data-name="Ellipse 381" cx="22.2" cy="22.2" r="22.2" transform="translate(432.837 91.106)" fill="#fff"/>
    </g>
    <g id="undraw_share_link_qtxe" transform="translate(646 212.959)">
      <rect id="Rectangle_131" data-name="Rectangle 131" width="158.07" height="1.312" transform="translate(470.93 262.043)" fill="#3f3d56"/>
      <path id="Path_270" data-name="Path 270" d="M771.744,380.5l4.591,24.268,9.838,2.624-2.624-28.859Z" transform="translate(-265.564 -130.242)" fill="#a0616a"/>
      <path id="Path_271" data-name="Path 271" d="M855.744,380.5l4.591,24.268,9.838,2.624-2.624-28.859Z" transform="translate(-294.469 -130.242)" fill="#a0616a"/>
      <path id="Path_272" data-name="Path 272" d="M899.606,584.253s-10.494-.656-10.494,2.624-5.247,14.43-5.247,14.43-3.935,13.118,6.559,11.806,17.053-13.118,17.053-13.118l-2.624-12.462Z" transform="translate(-382.932 -314.319)" fill="#2f2e41"/>
      <path id="Path_273" data-name="Path 273" d="M984.959,583.489s-7-4.5-6.5-1.5,1,11,4.5,11.5,14,3.5,14.5,4.5,12.5,5,12.5-1.5-7.5-11.5-7.5-11.5l-8.5-6.5s-5.5-.5-6.5,3S984.959,583.489,984.959,583.489Z" transform="translate(-415.722 -312.346)" fill="#2f2e41"/>
      <path id="Path_274" data-name="Path 274" d="M878.715,337.357s-11.15-16.4-15.086-11.15,9.838,15.086,9.838,15.086Z" transform="translate(-375.974 -225.185)" fill="#a0616a"/>
      <path id="Path_275" data-name="Path 275" d="M886.462,358.459C885.806,357.8,874,346.653,874,346.653l8.527-5.9,9.838,9.838Z" transform="translate(-379.786 -230.546)" fill="#575a89"/>
      <path id="Path_276" data-name="Path 276" d="M891.352,290.25s-8.527.656-7.871,7.871,6.231,31.155,6.231,31.155l3.28,6.559S905.125,298.121,891.352,290.25Z" transform="translate(-383.036 -213.169)" fill="#575a89"/>
      <path id="Path_277" data-name="Path 277" d="M891.441,237.012l2.361,7.871h29.581l.853-8.527,2.558,8.527h3.8l.853-8.527,2.558,8.527h4l-3.762-9.062a73.069,73.069,0,0,1-3.966-13.408,25.26,25.26,0,0,0-24.739-20.163h0q-.523,0-1.041.021c-16.58.672-27.2,18.035-20.837,33.36l3.84,9.252h3.148Z" transform="translate(-382.469 -182.887)" fill="#2f2e41"/>
      <path id="Path_278" data-name="Path 278" d="M887.866,359.75s-20.333,17.053-14.43,40.009,7.871,95.1,7.871,95.1l20.333-1.968V402.383l28.2,53.783,4.591,38.7,22.956-3.935L946.9,443.7l-20.181-60.2L924.6,366.141Z" transform="translate(-379.222 -237.084)" fill="#2f2e41"/>
      <circle id="Ellipse_374" data-name="Ellipse 374" cx="13.774" cy="13.774" r="13.774" transform="translate(508.972 27.233)" fill="#a0616a"/>
      <path id="Path_279" data-name="Path 279" d="M905,248.718s5.9,21.644,2.624,24.268,22.956-8.527,22.956-8.527S919.43,252,920.741,246.75Z" transform="translate(-390.453 -198.2)" fill="#a0616a"/>
      <path id="Path_280" data-name="Path 280" d="M924.438,265.328s-10.5,9.033-20.664,9.764c0,0-13.442,7.29-12.786,7.945s2.624,9.838,2.624,9.838,3.279,5.064,3.279,15.741c0,1.312-4.591,19.677-4.591,19.677l38.7,5.247s10.494-34.106,11.15-45.912,4.591-24.268-1.312-24.924S924.438,265.328,924.438,265.328Z" transform="translate(-385.623 -203.66)" fill="#575a89"/>
      <path id="Path_281" data-name="Path 281" d="M960.527,266.31s4.591-3.935,7.215,5.247S980.859,309.6,978.236,315.5s-18.365,32.139-18.365,32.139L952,342.394l15.741-29.515-9.182-20.989Z" transform="translate(-406.626 -204.642)" fill="#575a89"/>
      <path id="Path_282" data-name="Path 282" d="M949.09,381.75s-20.333,12.462-13.774,15.086,17.709-11.15,17.709-11.15Z" transform="translate(-400.437 -244.655)" fill="#a0616a"/>
      <path id="Path_283" data-name="Path 283" d="M774,38.5V52.274h5.247l1.968-5.9.492,5.9H796.3l1.968-5.9.492,5.9h6.067V38.5Z" transform="translate(-266.34 -13.234)" fill="#2f2e41"/>
      <path id="Path_284" data-name="Path 284" d="M894.275,310.25s-1.312,13.118.656,15.741S894.275,310.25,894.275,310.25Z" transform="translate(-386.615 -220.051)" opacity="0.2"/>
      <rect id="Rectangle_132" data-name="Rectangle 132" width="278.098" height="1.312" transform="translate(116.093 319.105)" fill="#3f3d56"/>
      <path id="Path_285" data-name="Path 285" d="M594.47,460.967l-80.688,80.688a65.777,65.777,0,0,1-93.018,0c-1.089-1.089-2.138-2.21-3.135-3.365a63.525,63.525,0,0,1-4.585-5.9,64.788,64.788,0,0,1-10.389-24.924q-.561-2.922-.846-5.9-.3-3.178-.308-6.415a66.084,66.084,0,0,1,2.44-17.853q.836-3,1.961-5.9a65.633,65.633,0,0,1,14.863-22.753l35.2-35.2a9.837,9.837,0,1,1,13.911,13.911l-35.2,35.2a46.484,46.484,0,0,0-6.933,8.841,45.772,45.772,0,0,0-6.565,23.756,47.258,47.258,0,0,0,.439,6.415,44.889,44.889,0,0,0,1.22,5.9,46.089,46.089,0,0,0,77.034,20.28l20.28-20.28,36.074-36.074,24.334-24.334a46.176,46.176,0,0,0,5.162-59.043,9.841,9.841,0,1,1,16.142-11.262A65.889,65.889,0,0,1,594.47,460.967Z" transform="translate(-217.194 -241.485)" fill="#3f3d56"/>
      <path id="Path_286" data-name="Path 286" d="M777.169,238.537q0,.728-.02,1.456a65.471,65.471,0,0,1-5.464,24.924,63.454,63.454,0,0,1-2.952,5.9,65.958,65.958,0,0,1-10.829,14.226l-35.2,35.2a9.837,9.837,0,0,1-13.911-13.911l35.2-35.2c.1-.1.21-.21.308-.315a45.83,45.83,0,0,0,13.164-30.827c.02-.485.026-.971.026-1.456q0-2.243-.21-4.447a46.049,46.049,0,0,0-13.288-28.151c-.7-.7-1.417-1.377-2.158-2.02a46.1,46.1,0,0,0-60.88,0c-.741.643-1.456,1.318-2.158,2.02L598.11,286.627a46.158,46.158,0,0,0,0,65.2A9.837,9.837,0,1,1,584.2,365.734a65.848,65.848,0,0,1,0-93.019l80.688-80.688a65.843,65.843,0,0,1,102.457,11.891,63.154,63.154,0,0,1,3.26,5.9,65.216,65.216,0,0,1,6.415,24.268Q777.166,236.3,777.169,238.537Z" transform="translate(-273.444 -172.75)" fill="#3f3d56"/>
      <path id="Path_287" data-name="Path 287" d="M237.1,687.749c-3,11.107-13.3,17.986-13.3,17.986s-5.42-11.129-2.415-22.237,13.3-17.986,13.3-17.986S240.1,676.642,237.1,687.749Z" transform="translate(-154.903 -342.3)" fill="#4c6796"/>
      <path id="Path_288" data-name="Path 288" d="M203.664,687.749c3,11.107,13.3,17.986,13.3,17.986s5.42-11.129,2.415-22.237-13.3-17.986-13.3-17.986S200.66,676.642,203.664,687.749Z" transform="translate(-148.805 -342.3)" fill="#4c6796"/>
      <path id="Path_289" data-name="Path 289" d="M200.061,691.211c8.245,8.026,9.252,20.364,9.252,20.364s-12.361-.675-20.606-8.7-9.252-20.364-9.252-20.364S191.816,683.185,200.061,691.211Z" transform="translate(-140.787 -348.149)" fill="#3f3d56"/>
      <path id="Path_290" data-name="Path 290" d="M234.23,691.211c-8.245,8.026-9.252,20.364-9.252,20.364s12.361-.675,20.606-8.7,9.252-20.364,9.252-20.364S242.475,683.185,234.23,691.211Z" transform="translate(-156.452 -348.149)" fill="#3f3d56"/>
      <path id="Path_291" data-name="Path 291" d="M789.736,264.36a13.279,13.279,0,0,1-.262,2.624,13.144,13.144,0,1,1,.262-2.624Z" transform="translate(-341.762 -199.741)" fill="#3f3d56"/>
      <path id="Path_292" data-name="Path 292" d="M494.736,567.36a13.276,13.276,0,0,1-.262,2.621,13.144,13.144,0,1,1,.262-2.621Z" transform="translate(-240.25 -304.006)" fill="#3f3d56"/>
      <rect id="Rectangle_133" data-name="Rectangle 133" width="151.511" height="1.312" transform="translate(0 362.394)" fill="#3f3d56"/>
      <path id="Path_293" data-name="Path 293" d="M696.083,220.25h27.961c-.741.643-1.456,1.318-2.158,2.02L718,226.153H690.18Z" transform="translate(-316.532 -189.081)" fill="#4c6796"/>
      <path id="Path_294" data-name="Path 294" d="M863.4,226.153h-23.14a46.012,46.012,0,0,0-3.47-3.883c-.7-.7-1.417-1.377-2.158-2.02h25.508a63.137,63.137,0,0,1,3.26,5.9Z" transform="translate(-366.238 -189.081)" fill="#4c6796"/>
      <path id="Path_295" data-name="Path 295" d="M529.583,93.5h27.823l-5.9,5.9H523.68Z" transform="translate(-180.203 -32.16)" fill="#4c6796"/>
      <path id="Path_296" data-name="Path 296" d="M789.322,266.25a13.232,13.232,0,0,1,.151,5.9H763.762a13.233,13.233,0,0,1,.151-5.9Z" transform="translate(-341.762 -204.91)" fill="#4c6796"/>
      <path id="Path_297" data-name="Path 297" d="M878.067,270.7q0,.728-.02,1.456H858.364c.02-.485.026-.971.026-1.456q0-2.243-.21-4.447h19.736Q878.063,268.464,878.067,270.7Z" transform="translate(-374.342 -204.91)" fill="#4c6796"/>
      <path id="Path_298" data-name="Path 298" d="M482.583,140.5h27.823l-5.9,5.9H476.68Z" transform="translate(-164.03 -48.333)" fill="#4c6796"/>
      <path id="Path_299" data-name="Path 299" d="M865.773,313.25a63.487,63.487,0,0,1-2.951,5.9H838.39a45.538,45.538,0,0,0,4.913-5.9Z" transform="translate(-367.532 -221.083)" fill="#4c6796"/>
      <path id="Path_300" data-name="Path 300" d="M429.022,523.25a45.772,45.772,0,0,0-3,5.9h-20.8q.836-3,1.961-5.9Z" transform="translate(-218.475 -293.346)" fill="#4c6796"/>
      <path id="Path_301" data-name="Path 301" d="M541.626,350.5l-5.9,5.9H507.9l5.9-5.9Z" transform="translate(-174.773 -120.596)" fill="#4c6796"/>
      <path id="Path_302" data-name="Path 302" d="M423,575.153H402.816q-.561-2.922-.846-5.9h19.808A44.867,44.867,0,0,0,423,575.153Z" transform="translate(-217.356 -309.175)" fill="#4c6796"/>
      <path id="Path_303" data-name="Path 303" d="M494.736,572.529a13.276,13.276,0,0,1-.262,2.621l-25.712,0a13.231,13.231,0,0,1,.151-5.9h25.409a13.213,13.213,0,0,1,.413,3.279Z" transform="translate(-240.25 -309.175)" fill="#4c6796"/>
      <path id="Path_304" data-name="Path 304" d="M495.626,396.5l-5.9,5.9H461.9l5.9-5.9Z" transform="translate(-158.944 -136.425)" fill="#4c6796"/>
      <path id="Path_305" data-name="Path 305" d="M457.037,622.153H423.685a63.542,63.542,0,0,1-4.585-5.9h27.049A45.641,45.641,0,0,0,457.037,622.153Z" transform="translate(-223.251 -325.348)" fill="#4c6796"/>
      <path id="Path_306" data-name="Path 306" d="M566.1,616.25l-5.9,5.9H526.62a45.641,45.641,0,0,0,10.888-5.9Z" transform="translate(-260.249 -325.348)" fill="#4c6796"/>
      <path id="Path_307" data-name="Path 307" d="M415.793,337.815c-5.015-8.473-14.935-8.868-14.935-8.868s-9.667-1.236-15.869,11.668c-5.78,12.028-13.758,23.641-1.284,26.457l2.253-7.013,1.4,7.535a48.808,48.808,0,0,0,5.337.091c13.358-.431,26.08.126,25.67-4.667C417.816,356.646,420.618,345.968,415.793,337.815Z" transform="translate(-208.798 -226.474)" fill="#2f2e41"/>
      <path id="Path_308" data-name="Path 308" d="M260.5,454.312l.656,17.053h11.806L272.306,453Z" transform="translate(-89.64 -155.867)" fill="#fbbebe"/>
      <path id="Path_309" data-name="Path 309" d="M408.646,442.718l-1.194,3.968-15.466,51.376-1.705,5.654,1.312,60.342-16.4,1.968s-.479-6.336-1.181-15.689c-1.41-18.522-3.719-48.9-5.057-65.425-.492-6.113-.846-10.33-.977-11.367-.656-5.247,7.871-31.483,7.871-31.483l17.053-1.312Z" transform="translate(-205.648 -264.957)" fill="#2f2e41"/>
      <path id="Path_310" data-name="Path 310" d="M373.872,649.294s-4.591-5.247-5.247-1.312S360.1,667,360.1,667s-22.956,15.086-3.279,16.4c0,0,9.838-1.312,13.118-6.559,0,0,5.247-3.279,6.559-3.279s9.182-2.624,7.871-6.559-.656-18.365-.656-18.365Z" transform="translate(-199.077 -335.764)" fill="#2f2e41"/>
      <path id="Path_311" data-name="Path 311" d="M265.5,427.559l5.9,11.15,9.182-4.591L274.682,421Z" transform="translate(-91.361 -144.856)" fill="#fbbebe"/>
      <path id="Path_312" data-name="Path 312" d="M375.731,528.254s-4.893-10.691-6.231-27.22c9.5-10.612,20.989-22.3,20.989-22.3l13.774-.656,4.263-.328c1,9.97-7.438,22.812-16,33.044A183.124,183.124,0,0,1,375.731,528.254Z" transform="translate(-206.183 -277.689)" opacity="0.2"/>
      <path id="Path_313" data-name="Path 313" d="M385.776,466.706S343.8,503.436,349.7,518.522,372,551.972,372,551.972l12.668-7.561-12.012-27.857s5.036-4.466,11.166-11.083c9.975-10.768,22.847-27.233,21.629-39.421l-.656-22.3-11.15,1.312Z" transform="translate(-199.174 -265.989)" fill="#2f2e41"/>
      <path id="Path_314" data-name="Path 314" d="M396.9,614.938s-4.591,0-3.935,3.935,1.968,10.494,1.968,10.494-5.247,30.827,7.215,23.612,9.182-26.236,9.182-26.236,4.591-11.806-1.312-13.118-7.871-2.624-8.527-1.968S396.9,614.938,396.9,614.938Z" transform="translate(-214.236 -323.708)" fill="#2f2e41"/>
      <circle id="Ellipse_375" data-name="Ellipse 375" cx="11.806" cy="11.806" r="11.806" transform="translate(180.042 106.924)" fill="#fbbebe"/>
      <path id="Path_315" data-name="Path 315" d="M404.624,360.75s5.247,13.774,3.279,14.43-5.9,3.935-5.9,3.935l6.559,5.9,17.053-9.182s-7.871-10.494-7.215-15.086Z" transform="translate(-217.367 -237.428)" fill="#fbbebe"/>
      <path id="Path_316" data-name="Path 316" d="M416.128,379.75s-13.724,6.766-18.668,2.4c0,0-8.223-.431-9.535,4.16s1.312,8.527-1.968,9.838-5.575,4.919-3.607,10.822,1.64,6.887-.984,8.855-5.247,5.9-5.247,7.215-2.624,1.312-1.312,2.624-1.312,0,1.312,1.312,9.838-10.494,15.086-4.591,21.644,15.741,22.956,9.838,5.247-20.333,5.247-20.333,13.774-25.58,9.838-28.2S416.128,379.75,416.128,379.75Z" transform="translate(-207.883 -243.966)" fill="#cfcce0"/>
      <path id="Path_317" data-name="Path 317" d="M425.825,449.659s-7.215-1.312-9.182,3.279-13.118,15.086-5.9,15.741S423.2,457.53,423.2,457.53l7.215-1.312Z" transform="translate(-219.547 -267.963)" fill="#fbbebe"/>
      <path id="Path_318" data-name="Path 318" d="M441.527,385.75l8.578.478s3.884,4.114,4.54,8.049,13.118,33.45,5.247,36.73-24.924,5.247-24.924,5.247L433,427.071l11.15-3.935-7.871-16.4Z" transform="translate(-228.034 -246.031)" fill="#cfcce0"/>
      <path id="Path_319" data-name="Path 319" d="M264.968,376.306l10.789,26.972L263,376.306,274.15,364.5Z" transform="translate(-90.501 -125.414)" opacity="0.2"/>
      <path id="Path_320" data-name="Path 320" d="M256.143,427.766l4.5,5.729h-3.279Z" transform="translate(-88.141 -147.184)" opacity="0.2"/>
      <circle id="Ellipse_376" data-name="Ellipse 376" cx="7.173" cy="7.173" r="7.173" transform="translate(186.101 95.343)" fill="#2f2e41"/>
      <path id="Path_321" data-name="Path 321" d="M402.294,322.388a7.173,7.173,0,0,1,6.418-7.133,7.252,7.252,0,0,0-.754-.04,7.173,7.173,0,0,0,0,14.347,7.248,7.248,0,0,0,.755-.04A7.174,7.174,0,0,1,402.294,322.388Z" transform="translate(-216.948 -221.759)" fill="#2f2e41"/>
      <path id="Path_322" data-name="Path 322" d="M298.5,165.8l-9.8-5.134-13.535,2.1-2.8,12.368,6.971-.268,1.947-4.544v4.469l3.216-.124,1.867-7.234,1.167,7.7,11.435-.233Z" transform="translate(-93.723 -55.271)" fill="#2f2e41"/>
    </g>
  </g>
</svg>
