<svg version="1.1" xmlns="http://www.w3.org/2000/svg" viewBox="0 0 47 32">
<path fill="#f8f8ff" d="M2.384 23.75s1.428-6.809 3.238-9.952 4.619-11.856 17.237-11.047 13.522 5.142 15.57 9.952 5.142 4.095 6.333 6.619 0.619 3.143 0.619 3.143z"></path>
<path fill="#f5f5fc" d="M2.384 23.75s1.286 1.428 1.143 1.762-3.524 4.047 2.666 5.285 30.521 1.809 33.902 0.286 2.19-2.285 0.952-3.857 2.428-0.048 3.238-1.667c0.455-0.889 0.832-1.922 1.078-3.005l0.017-0.090z"></path>
<path fill="#e9edfa" d="M45.292 20.647s-4.863-4.778-18.91-1.826-19.094-0.594-21.189-0.594-2.202 5.535-2.202 5.535l42.384-1.29 0.114-0.36c0.014-0.071 0.022-0.152 0.022-0.236 0-0.034-0.001-0.068-0.004-0.102l0 0.004-0.018-0.219c-0.007-0.076-0.016-0.143-0.029-0.209l0.002 0.012z"></path>
<path fill="#bac6f2" d="M2.366 23.733s-5.324-2.684 0-4.136c0 0 2.333-6.028 6.556-0.792 0 0 3.872-0.396 3.96 2.2 0 0 0.836 0.571 2.112 0.704s1.364 1.188 1.1 1.496-1.188 0.396-1.188 0.396z"></path>
<path fill="#b1c1f2" d="M42.505 22.554l-0.004-11.727s-5.637-0.446-4.803-3.976c0.549-2.325 2.404-2.508 2.359-3.734-0.032-0.886 0.773-4.512 3.206-2.536 1.922 1.561 1.019 2.848 2.012 3.031 1.017 0.187 2.257 1.897 1.567 2.9s0.079 1.040 0.079 1.541 0.408 1.959-1.661 2.333-2.469 0.496-2.469 0.496l0.174 11.67z"></path>
<path fill="#b1c1f2" d="M41.156 22.6v-5.901s-1.943-0.225-1.656-2.006c0.19-1.173 0.829-1.265 0.813-1.884-0.011-0.447 0.267-2.276 1.105-1.279 0.663 0.787 0.352 1.437 0.693 1.529 0.35 0.095 0.778 0.957 0.54 1.463s0.027 0.524 0.027 0.778 0.143 0.989-0.571 1.178-0.733 0.19-0.733 0.19l0.011 5.914z"></path>
<path fill="#bac6f2" d="M39.37 22.655l0.006-9.925s4.005-0.377 3.413-3.366c-0.39-1.969-1.708-2.124-1.676-3.161 0.023-0.75-0.549-3.82-2.278-2.147-1.365 1.321-0.724 2.411-1.428 2.566-0.722 0.159-1.604 1.606-1.114 2.456s-0.056 0.88-0.056 1.305-0.29 1.659 1.18 1.977 1.755 0.42 1.755 0.42l-0.109 9.882z"></path>
<path fill="#fff" d="M16.141 10.403c0 0.628-0.509 1.137-1.137 1.137s-1.137-0.509-1.137-1.137c0-0.628 0.509-1.137 1.137-1.137s1.137 0.509 1.137 1.137z"></path>
<path fill="#fff" d="M12.296 10.375c0 0.628-0.509 1.137-1.137 1.137s-1.137-0.509-1.137-1.137c0-0.628 0.509-1.137 1.137-1.137s1.137 0.509 1.137 1.137z"></path>
<path fill="#fff" d="M14.655 10.327c0 0.845-0.685 1.531-1.531 1.531s-1.531-0.685-1.531-1.531c0-0.845 0.685-1.531 1.531-1.531s1.531 0.685 1.531 1.531z"></path>
<path fill="#fff" d="M30.55 7.861c0 0.628-0.509 1.137-1.137 1.137s-1.137-0.509-1.137-1.137c0-0.628 0.509-1.137 1.137-1.137s1.137 0.509 1.137 1.137z"></path>
<path fill="#fff" d="M32.908 7.813c0 0.845-0.685 1.531-1.531 1.531s-1.531-0.685-1.531-1.531c0-0.845 0.685-1.531 1.531-1.531s1.531 0.685 1.531 1.531z"></path>
<path fill="#3f3d56" d="M34.336 21.584h10.9v0.090h-10.9v-0.090z"></path>
<path fill="#a0616a" d="M36.767 20.771l0.317 1.673 0.678 0.181-0.181-1.99z"></path>
<path fill="#a0616a" d="M40.566 20.771l0.317 1.673 0.678 0.181-0.181-1.99z"></path>
<path fill="#2f2e41" d="M37.49 22.128s-0.724-0.045-0.724 0.181-0.362 0.995-0.362 0.995-0.271 0.905 0.452 0.814 1.176-0.905 1.176-0.905l-0.181-0.859z"></path>
<path fill="#2f2e41" d="M41.115 22.211s-0.483-0.31-0.448-0.103 0.069 0.759 0.31 0.793 0.965 0.241 1 0.31 0.862 0.345 0.862-0.103-0.517-0.793-0.517-0.793l-0.586-0.448s-0.379-0.034-0.448 0.207-0.172 0.138-0.172 0.138z"></path>
<path fill="#a0616a" d="M36.529 11.249s-0.769-1.131-1.040-0.769 0.678 1.040 0.678 1.040z"></path>
<path fill="#575a89" d="M36.801 12.335c-0.045-0.045-0.859-0.814-0.859-0.814l0.588-0.407 0.678 0.678z"></path>
<path fill="#575a89" d="M36.914 8.829s-0.588 0.045-0.543 0.543 0.43 2.148 0.43 2.148l0.226 0.452s0.837-2.601-0.113-3.143z"></path>
<path fill="#2f2e41" d="M36.959 7.246l0.163 0.543h2.040l0.059-0.588 0.176 0.588h0.262l0.059-0.588 0.176 0.588h0.276l-0.259-0.625c-0.11-0.262-0.204-0.572-0.268-0.892l-0.005-0.032c-0.169-0.799-0.868-1.39-1.706-1.39v0q-0.036 0-0.072 0.001c-1.143 0.046-1.876 1.244-1.437 2.3l0.265 0.638h0.217z"></path>
<path fill="#2f2e41" d="M36.936 11.973s-1.402 1.176-0.995 2.759 0.543 6.558 0.543 6.558l1.402-0.136v-6.241l1.945 3.709 0.317 2.669 1.583-0.271-0.723-3.257-1.392-4.151-0.146-1.197z"></path>
<path fill="#a0616a" d="M38.859 6.342c0 0.525-0.425 0.95-0.95 0.95s-0.95-0.425-0.95-0.95c0-0.525 0.425-0.95 0.95-0.95s0.95 0.425 0.95 0.95z"></path>
<path fill="#a0616a" d="M37.343 6.998s0.407 1.493 0.181 1.673 1.583-0.588 1.583-0.588-0.769-0.859-0.678-1.221z"></path>
<path fill="#575a89" d="M39.017 7.766s-0.724 0.623-1.425 0.673c0 0-0.927 0.503-0.882 0.548s0.181 0.678 0.181 0.678 0.226 0.349 0.226 1.085c0 0.090-0.317 1.357-0.317 1.357l2.669 0.362s0.724-2.352 0.769-3.166 0.317-1.673-0.090-1.719-1.131 0.181-1.131 0.181z"></path>
<path fill="#575a89" d="M40.057 7.766s0.317-0.271 0.498 0.362 0.904 2.623 0.724 3.030-1.266 2.216-1.266 2.216l-0.543-0.362 1.085-2.035-0.633-1.447z"></path>
<path fill="#a0616a" d="M39.695 12.968s-1.402 0.859-0.95 1.040 1.221-0.769 1.221-0.769z"></path>
<path fill="#2f2e41" d="M36.869 5.256v0.95h0.362l0.136-0.407 0.034 0.407h1.006l0.136-0.407 0.034 0.407h0.418v-0.95z"></path>
<path fill="#000" opacity="0.2" d="M36.869 9.734s-0.090 0.905 0.045 1.085-0.045-1.085-0.045-1.085z"></path>
<path fill="#3f3d56" d="M9.867 25.519h19.177v0.090h-19.177v-0.090z"></path>
<path fill="#3f3d56" d="M27.878 18.649l-5.564 5.564c-0.821 0.821-1.955 1.328-3.207 1.328s-2.386-0.508-3.207-1.328v0c-0.075-0.075-0.147-0.152-0.216-0.232-0.107-0.121-0.211-0.254-0.307-0.392l-0.009-0.014c-0.341-0.488-0.592-1.066-0.712-1.691l-0.005-0.028q-0.039-0.201-0.058-0.407-0.021-0.219-0.021-0.442c0-0.001 0-0.003 0-0.004 0-0.437 0.061-0.859 0.176-1.259l-0.008 0.032q0.058-0.207 0.135-0.407c0.241-0.612 0.589-1.135 1.025-1.569l2.427-2.427c0.123-0.125 0.295-0.203 0.484-0.203 0.375 0 0.678 0.304 0.678 0.678 0 0.19-0.078 0.361-0.203 0.484l-2.427 2.427c-0.179 0.179-0.337 0.379-0.47 0.596l-0.008 0.014c-0.284 0.465-0.453 1.027-0.453 1.629 0 0.003 0 0.007 0 0.010v-0c0 0.156 0.011 0.309 0.032 0.46l-0.002-0.017c0.022 0.157 0.051 0.295 0.089 0.429l-0.005-0.022c0.384 1.355 1.609 2.331 3.063 2.331 0.878 0 1.674-0.356 2.249-0.932l5.564-5.564c0.574-0.576 0.929-1.371 0.929-2.248 0-0.682-0.215-1.315-0.58-1.833l0.007 0.010c-0.076-0.108-0.122-0.243-0.122-0.388 0-0.375 0.304-0.679 0.679-0.679 0.229 0 0.432 0.114 0.555 0.288l0.001 0.002c0.511 0.725 0.817 1.626 0.817 2.599 0 1.252-0.507 2.387-1.326 3.208l0-0z"></path>
<path fill="#3f3d56" d="M36.597 8.050q0 0.050-0.001 0.1c-0.013 0.624-0.15 1.213-0.388 1.747l0.011-0.029c-0.072 0.165-0.14 0.299-0.215 0.428l0.011-0.021c-0.214 0.374-0.461 0.696-0.747 0.981l-2.427 2.427c-0.122 0.12-0.29 0.194-0.475 0.194-0.375 0-0.678-0.304-0.678-0.678 0-0.185 0.074-0.353 0.194-0.475l2.427-2.427c0.007-0.007 0.014-0.014 0.021-0.022 0.541-0.549 0.883-1.295 0.908-2.121l0-0.005c0.001-0.033 0.002-0.067 0.002-0.1q0-0.155-0.014-0.307c-0.076-0.763-0.412-1.437-0.916-1.941l-0-0c-0.048-0.048-0.098-0.095-0.149-0.139-0.557-0.492-1.293-0.792-2.099-0.792s-1.542 0.3-2.102 0.795l0.003-0.003c-0.051 0.044-0.1 0.091-0.149 0.139l-5.564 5.564c-0.574 0.576-0.93 1.37-0.93 2.248s0.355 1.672 0.93 2.248l-0-0c0.129 0.124 0.209 0.297 0.209 0.49 0 0.375-0.304 0.678-0.678 0.678-0.192 0-0.366-0.080-0.49-0.209l-0-0c-0.82-0.821-1.326-1.955-1.326-3.207s0.507-2.386 1.326-3.207l5.564-5.564c0.821-0.82 1.955-1.327 3.207-1.327 1.621 0 3.044 0.849 3.847 2.128l0.011 0.019c0.071 0.111 0.146 0.244 0.213 0.381l0.011 0.026c0.242 0.488 0.401 1.058 0.442 1.66l0.001 0.014q0.010 0.153 0.010 0.307z"></path>
<path fill="#4c6796" d="M7.53 27.335c-0.207 0.766-0.917 1.24-0.917 1.24s-0.374-0.767-0.167-1.533 0.917-1.24 0.917-1.24 0.373 0.767 0.167 1.533z"></path>
<path fill="#4c6796" d="M5.645 27.335c0.207 0.766 0.917 1.24 0.917 1.24s0.374-0.767 0.167-1.533-0.917-1.24-0.917-1.24-0.374 0.767-0.167 1.533z"></path>
<path fill="#3f3d56" d="M5.949 27.171c0.569 0.553 0.638 1.404 0.638 1.404s-0.852-0.047-1.421-0.6-0.638-1.404-0.638-1.404 0.852 0.046 1.421 0.6z"></path>
<path fill="#3f3d56" d="M7.225 27.171c-0.569 0.553-0.638 1.404-0.638 1.404s0.852-0.047 1.421-0.6 0.638-1.404 0.638-1.404-0.852 0.046-1.421 0.6z"></path>
<path fill="#3f3d56" d="M32.753 7.97c0 0.064-0.007 0.127-0.019 0.187l0.001-0.006c-0.087 0.417-0.451 0.726-0.888 0.726-0.501 0-0.906-0.406-0.906-0.906s0.406-0.906 0.906-0.906c0.5 0 0.906 0.405 0.906 0.905v0z"></path>
<path fill="#3f3d56" d="M19.41 21.674c-0 0.064-0.007 0.126-0.019 0.187l0.001-0.006c-0.087 0.417-0.451 0.726-0.888 0.726-0.501 0-0.906-0.406-0.906-0.906s0.406-0.906 0.906-0.906c0.5 0 0.906 0.405 0.906 0.906v0z"></path>
<path fill="#3f3d56" d="M1.862 28.504h10.448v0.090h-10.448v-0.090z"></path>
<path fill="#4c6796" d="M28.035 5.663h1.928c-0.051 0.044-0.1 0.091-0.149 0.139l-0.268 0.268h-1.918z"></path>
<path fill="#4c6796" d="M36.145 6.070h-1.596c-0.078-0.098-0.156-0.185-0.239-0.268l-0-0c-0.048-0.048-0.098-0.095-0.149-0.139h1.759c0.071 0.111 0.146 0.244 0.213 0.381l0.011 0.026z"></path>
<path fill="#4c6796" d="M25.954 7.744h1.919l-0.407 0.407h-1.919z"></path>
<path fill="#4c6796" d="M32.724 7.744c0.018 0.068 0.028 0.146 0.028 0.226 0 0.064-0.007 0.126-0.019 0.187l0.001-0.006h-1.773c-0.012-0.054-0.018-0.117-0.018-0.181 0-0.080 0.010-0.158 0.030-0.233l-0.001 0.006z"></path>
<path fill="#4c6796" d="M36.597 8.051q0 0.050-0.001 0.1h-1.357c0.001-0.033 0.002-0.067 0.002-0.1q0-0.155-0.014-0.307h1.361q0.010 0.152 0.010 0.307z"></path>
<path fill="#4c6796" d="M23.828 9.87h1.919l-0.407 0.407h-1.919z"></path>
<path fill="#4c6796" d="M36.219 9.87c-0.072 0.165-0.14 0.299-0.215 0.428l0.011-0.021h-1.685c0.121-0.123 0.232-0.255 0.332-0.397l0.007-0.010z"></path>
<path fill="#4c6796" d="M16.381 19.367c-0.070 0.114-0.139 0.247-0.199 0.386l-0.008 0.021h-1.434q0.058-0.207 0.135-0.407z"></path>
<path fill="#4c6796" d="M27.159 19.367l-0.407 0.407h-1.919l0.407-0.407z"></path>
<path fill="#4c6796" d="M16.042 21.855h-1.392q-0.039-0.201-0.058-0.407h1.366c0.022 0.157 0.051 0.295 0.090 0.429l-0.005-0.022z"></path>
<path fill="#4c6796" d="M19.41 21.674c-0 0.064-0.007 0.126-0.019 0.187l0.001-0.006h-1.773c-0.012-0.054-0.018-0.117-0.018-0.181 0-0.080 0.010-0.158 0.030-0.233l-0.001 0.006h1.752c0.018 0.068 0.028 0.146 0.028 0.226 0 0 0 0 0 0v0z"></path>
<path fill="#4c6796" d="M25.078 21.448l-0.407 0.407h-1.919l0.407-0.407z"></path>
<path fill="#4c6796" d="M17.983 23.981h-2.3c-0.107-0.121-0.211-0.254-0.307-0.392l-0.009-0.014h1.865c0.216 0.16 0.464 0.297 0.729 0.4l0.022 0.007z"></path>
<path fill="#4c6796" d="M22.952 23.574l-0.407 0.407h-2.316c0.287-0.11 0.534-0.247 0.759-0.413l-0.009 0.006z"></path>
<path fill="#2f2e41" d="M16.136 11.192c-0.346-0.584-1.030-0.611-1.030-0.611s-0.667-0.085-1.094 0.805c-0.399 0.829-0.949 1.63-0.089 1.824l0.155-0.484 0.097 0.52c0.072 0.006 0.156 0.009 0.241 0.009 0.045 0 0.089-0.001 0.133-0.003l-0.006 0c0.921-0.030 1.798 0.009 1.77-0.322-0.038-0.439 0.155-1.176-0.177-1.738z"></path>
<path fill="#fbbebe" d="M13.644 24.094l0.045 1.176h0.814l-0.045-1.266z"></path>
<path fill="#2f2e41" d="M15.86 15.772l-0.082 0.274-1.184 3.933 0.090 4.161-1.131 0.136s-0.033-0.437-0.081-1.082c-0.097-1.277-0.256-3.372-0.349-4.511-0.034-0.422-0.058-0.712-0.067-0.784-0.045-0.362 0.543-2.171 0.543-2.171l1.176-0.090z"></path>
<path fill="#2f2e41" d="M13.915 25.134s-0.317-0.362-0.362-0.090-0.588 1.311-0.588 1.311-1.583 1.040-0.226 1.131c0 0 0.678-0.090 0.905-0.452 0 0 0.362-0.226 0.452-0.226s0.633-0.181 0.543-0.452-0.045-1.266-0.045-1.266z"></path>
<path fill="#fbbebe" d="M13.87 23.008l0.407 0.769 0.633-0.317-0.407-0.905z"></path>
<path fill="#000" opacity="0.2" d="M13.553 20.792s-0.337-0.737-0.43-1.877c0.655-0.732 1.447-1.538 1.447-1.538l0.95-0.045 0.294-0.023c0.069 0.688-0.513 1.573-1.103 2.279-0.367 0.435-0.746 0.828-1.148 1.195l-0.010 0.009z"></path>
<path fill="#2f2e41" d="M14.729 17.355s-2.895 2.533-2.488 3.573 1.538 2.307 1.538 2.307l0.874-0.521-0.828-1.921s0.347-0.308 0.77-0.764c0.688-0.743 1.575-1.878 1.491-2.718l-0.045-1.538-0.769 0.090z"></path>
<path fill="#2f2e41" d="M14.458 23.596s-0.317 0-0.271 0.271 0.136 0.724 0.136 0.724-0.362 2.126 0.498 1.628 0.633-1.809 0.633-1.809 0.317-0.814-0.090-0.905-0.543-0.181-0.588-0.136-0.317 0.226-0.317 0.226z"></path>
<path fill="#fbbebe" d="M15.905 11.701c0 0.45-0.364 0.814-0.814 0.814s-0.814-0.364-0.814-0.814c0-0.45 0.364-0.814 0.814-0.814s0.814 0.364 0.814 0.814z"></path>
<path fill="#fbbebe" d="M14.775 12.018s0.362 0.95 0.226 0.995-0.407 0.271-0.407 0.271l0.452 0.407 1.176-0.633s-0.543-0.724-0.498-1.040z"></path>
<path fill="#cfcce0" d="M16.222 12.877s-0.946 0.467-1.287 0.165c0 0-0.567-0.030-0.658 0.287s0.090 0.588-0.136 0.678-0.384 0.339-0.249 0.746 0.113 0.475-0.068 0.611-0.362 0.407-0.362 0.498-0.181 0.090-0.090 0.181-0.090 0 0.090 0.090 0.678-0.724 1.040-0.317 1.492 1.085 1.583 0.678 0.362-1.402 0.362-1.402 0.95-1.764 0.678-1.945-0.905-0.272-0.905-0.272z"></path>
<path fill="#fbbebe" d="M16.086 16.043s-0.498-0.090-0.633 0.226-0.905 1.040-0.407 1.085 0.859-0.769 0.859-0.769l0.498-0.090z"></path>
<path fill="#cfcce0" d="M16.584 13.149l0.591 0.033s0.268 0.284 0.313 0.555 0.905 2.307 0.362 2.533-1.719 0.362-1.719 0.362l-0.136-0.633 0.769-0.271-0.543-1.131z"></path>
<path fill="#000" opacity="0.2" d="M13.893 20.815l0.744 1.86-0.88-1.86 0.769-0.814z"></path>
<path fill="#000" opacity="0.2" d="M13.447 22.862l0.31 0.395h-0.226z"></path>
<path fill="#2f2e41" d="M15.684 10.583c0 0.273-0.221 0.495-0.495 0.495s-0.495-0.221-0.495-0.495c0-0.273 0.221-0.495 0.495-0.495s0.495 0.221 0.495 0.495z"></path>
<path fill="#2f2e41" d="M14.643 10.453c0-0.255 0.193-0.465 0.44-0.492l0.002-0c-0.016-0.002-0.034-0.003-0.052-0.003h-0c-0.273 0-0.495 0.221-0.495 0.495s0.221 0.495 0.495 0.495v0c0.018 0 0.036-0.001 0.054-0.003l-0.002 0c-0.25-0.027-0.443-0.237-0.443-0.492v0z"></path>
<path fill="#2f2e41" d="M15.983 11.136l-0.676-0.354-0.933 0.145-0.193 0.853 0.481-0.018 0.134-0.313v0.308l0.222-0.009 0.129-0.499 0.080 0.531 0.789-0.016z"></path>
</svg>
