<svg version="1.1" xmlns="http://www.w3.org/2000/svg" viewBox="0 0 2515 1024">
<path fill="#f45c5e" opacity="0.998" d="M418.683 1024c-0.029 0-0.064 0-0.098 0-9.971 0-18.994-4.055-25.511-10.607l-382.466-382.466c-6.553-6.554-10.606-15.608-10.606-25.608s4.053-19.054 10.606-25.608l382.464-382.469c6.554-6.553 15.608-10.607 25.608-10.607s19.054 4.053 25.608 10.607l382.469 382.464c6.553 6.554 10.606 15.608 10.606 25.608s-4.053 19.054-10.606 25.608l-382.464 382.469c-6.518 6.553-15.542 10.609-25.513 10.609-0.034 0-0.069 0-0.103 0h0.005zM276.391 362.193v488.383h129.893v-183.329h146.219v-105.766h-146.219v-93.148h158.837v-106.139z"></path>
<path fill="#668ba2" d="M965.172 850.576h-319.906v-488.383h132.112v381.873h187.794zM1333.316 742.952v107.623h-289.846v-488.383h289.846v106.136h-157.734v76.817h146.217v105.766h-146.217v92.035zM1692.552 611.208l166.257 239.368h-152.526l-95.005-152.526-94.252 152.526h-149.185l161.792-249.748-152.155-238.624h146.217l87.953 151.042 84.985-151.042h150.671z"></path>
<path fill="#132533" d="M2478.991 923.017h-545.714c-0.001 0-0.002 0-0.003 0-20 0-36.213-16.21-36.219-36.208v-574.701c0-0.001 0-0.002 0-0.003 0-20.003 16.216-36.219 36.219-36.219 0.001 0 0.002 0 0.003 0h545.714c20.003 0 36.219 16.216 36.219 36.219 0 0.001 0 0.002 0 0.003v0 574.7c0 0.001 0 0.002 0 0.003 0 20.003-16.216 36.219-36.219 36.219v0zM2207.184 347.529c-0.448-0.002-0.979-0.003-1.51-0.003-18.773 0-37.205 1.456-55.191 4.26l1.999-0.257c-18.069 2.794-34.158 6.988-49.559 12.609l1.791-0.572c-15.63 5.675-29.104 12.44-41.63 20.546l0.796-0.482c-12.806 8.322-23.92 17.592-33.825 28.021l-0.075 0.080c-9.92 10.485-18.733 22.199-26.138 34.838l-0.489 0.904c-7.2 12.284-13.641 26.514-18.564 41.434l-0.454 1.59c-4.779 14.267-8.767 31.258-11.231 48.739l-0.181 1.569c-2.425 17.302-3.81 37.291-3.81 57.603s1.385 40.3 4.064 59.876l-0.255-2.273c2.655 19.079 6.656 36.093 12.044 52.477l-0.597-2.098c5.399 16.558 11.859 30.826 19.656 44.221l-0.58-1.079c7.927 13.602 16.766 25.369 26.797 35.999l-0.088-0.094c10.003 10.558 21.135 19.876 33.251 27.816l0.707 0.435c11.73 7.663 25.198 14.465 39.416 19.723l1.408 0.456c13.59 5.077 29.647 9.294 46.234 11.919l1.453 0.189c16.422 2.568 35.362 4.036 54.645 4.036 19.201 0 38.062-1.455 56.479-4.26l-2.065 0.259c17.981-2.784 33.992-6.966 49.316-12.571l-1.777 0.568c15.534-5.653 28.927-12.398 41.371-20.482l-0.781 0.476c12.701-8.286 23.724-17.525 33.536-27.918l0.083-0.088c9.841-10.47 18.576-22.179 25.896-34.81l0.487-0.911c7.143-12.321 13.529-26.607 18.395-41.578l0.45-1.599c4.739-14.351 8.693-31.455 11.128-49.045l0.179-1.578c2.396-17.437 3.763-37.587 3.763-58.056s-1.368-40.62-4.017-60.364l0.253 2.308c-2.604-19.139-6.546-36.221-11.868-52.682l0.595 2.13c-5.294-16.524-11.661-30.771-19.366-44.152l0.579 1.090c-7.774-13.486-16.482-25.145-26.39-35.663l0.088 0.095c-9.876-10.425-20.884-19.612-32.875-27.414l-0.699-0.427c-11.664-7.568-25.063-14.277-39.205-19.444l-1.398-0.447c-13.571-5.011-29.615-9.17-46.182-11.749l-1.447-0.185c-16.003-2.537-34.455-3.987-53.246-3.987-0.481 0-0.961 0.001-1.441 0.003h0.075zM2206.259 740.166c-0.621 0.014-1.354 0.022-2.088 0.022-14.845 0-28.923-3.286-41.545-9.172l0.606 0.253c-6.45-3.144-12.008-6.852-16.996-11.196l0.092 0.078c-5.206-4.573-9.764-9.682-13.65-15.291l-0.181-0.276c-8.467-12.72-14.864-27.624-18.289-43.629l-0.151-0.845c-3.923-17.602-6.17-37.819-6.17-58.56 0-1.303 0.009-2.604 0.027-3.903l-0.002 0.197c-0.016-1.099-0.024-2.397-0.024-3.697 0-20.747 2.265-40.965 6.561-60.421l-0.343 1.851c3.608-16.86 10.052-31.763 18.873-44.942l-0.293 0.465c4.097-5.885 8.688-10.994 13.834-15.482l0.099-0.085c4.932-4.266 10.53-7.975 16.571-10.917l0.457-0.201c12.112-5.632 26.292-8.918 41.239-8.918 0.742 0 1.483 0.008 2.221 0.024l-0.11-0.002c0.642-0.015 1.398-0.023 2.156-0.023 14.832 0 28.908 3.238 41.56 9.046l-0.621-0.255c6.431 3.092 11.972 6.749 16.949 11.043l-0.098-0.082c5.172 4.501 9.693 9.538 13.542 15.077l0.176 0.267c8.447 12.72 14.788 27.64 18.107 43.666l0.142 0.822c3.881 17.854 6.104 38.364 6.104 59.393 0 1.382-0.010 2.761-0.029 4.138l0.002-0.209c0.017 1.172 0.027 2.556 0.027 3.942 0 20.974-2.21 41.431-6.409 61.152l0.341-1.914c-3.397 16.692-9.687 31.476-18.377 44.526l0.286-0.456c-4.005 5.723-8.523 10.683-13.598 15.008l-0.11 0.092c-4.918 4.156-10.511 7.76-16.539 10.592l-0.463 0.195c-12.24 5.467-26.524 8.652-41.553 8.652-0.82 0-1.639-0.009-2.454-0.028l0.121 0.002z"></path>
<path fill="#132533" d="M645.276 398.22l132.112 132.112v149.954l-132.112 132.112z"></path>
<path class="sleepy-man" fill="#132533" d="M450.256 203.13s-10.275-38.179 31.35-47.6c23.265-5.266 44.74 10.059 56.979 32.511 6.761 13.269 10.723 28.939 10.723 45.534 0 1.514-0.033 3.020-0.098 4.517l0.007-0.213c-0.615 7.207-12.644 11.276 12.423 22.372s70.469 3.27 103.171 14.222 34.042 14.183 58.045 28.103-15.118 2.101 51.498 18.779c24.644 6.172 35.513 8.289 40.382 42.163s4.176 75.131 17.637 82.472c4.826 2.57 10.568 5.056 16.518 7.097l0.861 0.257c7.499 2.826 9.807 3.677 12.607 3.94 0.245 0.029 0.53 0.045 0.818 0.045 1.414 0 2.735-0.398 3.858-1.088l-0.032 0.018s2.889-0.925 2.889 0.633c0 4.62-22.977 3.646-39.022 6.083s-19.129 7.551-25.151 3.677-1.804-8.463-2.461-19.496-1.006-12.024-4.489-30.176c-11.388-45.197-24.426-53.475-24.426-53.475s-118.717 0.084-116.981 0-36.679 0.854-54.468-8.197-23.273-28.448-25.85-5.216c-2.411 21.816-5.059 160.074-5.059 160.074 2.276 1.632 3.8 4.19 4.017 7.112l0.002 0.032c0.359 2.040 0.564 4.39 0.564 6.787 0 2.904-0.301 5.737-0.874 8.47l0.047-0.267c-0.888 4.83-3.225 4.875-4.3 4.11s0-7.173 0-7.173 0.281-5.873-0.775-4.99-0.63 5.778-2.443 11.055c-1.143 3.847-2.782 7.202-4.88 10.214l0.076-0.115c-2.015 2.986-3.383 4.092-3.254 1.839s2.663-5.403 3.769-10.834 2.7-12.032 0.654-10.895-4.108 9.862-7.412 15.759-4.912 8.032-5.802 7.861 2.24-8.549 2.24-8.549 0.911-2.808 2.248-6.566 3.774-8.074 3.11-8.502-2.936 1.726-5.778 6.784-5.143 13.658-5.552 13.453c-0.012-0.354-0.019-0.771-0.019-1.189 0-5.062 1.004-9.889 2.823-14.293l-0.091 0.249c2.626-5.97 6.992-11.015 6.724-11.557s-4.762 4.486-7.803 9.379-3.782 11.218-4.355 10.199c-0.194-1.151-0.305-2.477-0.305-3.829 0-3.799 0.875-7.393 2.435-10.592l-0.063 0.143c2.516-4.987 5.738-9.233 9.594-12.804l0.029-0.027-15.478-217.103z"></path>
<path class="sleep-bubble" fill="#132533" d="M610.003 146.997c5.531 6.017 9.866 16.243-4.535 16.915s-40.648-7.512-53.070-14.229 3.388-12.638 3.388-12.638 33.113-18.927 35.808-27.475-25.024-6.709-25.024-6.709-9.176-16.058 4.535-16.915 38.647 6.688 50.302 13.487-3.673 13.701-3.673 13.701-32.459 18.251-34.391 26.716 21.13 1.132 26.661 7.148z"></path>
<path class="sleep-bubble" fill="#132533" d="M515.703 113.421c3.982 4.331 7.104 11.695-3.265 12.179s-29.27-5.4-38.21-10.245 2.44-9.101 2.44-9.101 23.85-13.621 25.773-19.777-18.014-4.83-18.014-4.83-6.606-11.562 3.265-12.179 27.824 4.817 36.216 9.71-2.646 9.87-2.646 9.87-23.374 13.132-24.76 19.225 15.217 0.817 19.201 5.148z"></path>
<path class="sleep-bubble" fill="#132533" d="M567.395 48.82c3.188 3.468 5.689 9.363-2.614 9.75s-23.435-4.331-30.593-8.203 1.954-7.287 1.954-7.287 19.082-10.91 20.635-15.83-14.426-3.868-14.426-3.868-5.288-9.256 2.614-9.75 22.279 3.855 28.998 7.775-2.119 7.903-2.119 7.903-18.708 10.508-19.823 15.387 12.18 0.652 15.375 4.122z"></path>
<path class="sleep-bubble" fill="#132533" d="M619.536 24.716c2.074 2.256 3.7 6.091-1.701 6.343-3.168-0.141-6.705-0.684-10.229-1.629s-6.858-2.244-9.975-3.85l0.302 0.143c-4.658-2.519 1.271-4.739 1.271-4.739s12.421-7.105 13.428-10.3-9.388-2.517-9.388-2.517-3.441-6.022 1.701-6.343c3.017 0.076 6.376 0.556 9.721 1.453s6.493 2.161 9.413 3.739l-0.269-0.133c4.372 2.551-1.378 5.14-1.378 5.14s-12.168 6.841-12.897 10.015 7.928 0.423 10.002 2.679z"></path>
</svg>
