<svg xmlns="http://www.w3.org/2000/svg" viewBox="0 0 31.183 31.259">
  <path d="M-6303.077-3532.817a2.924,2.924,0,0,1-2.924-2.923v-13.643a2.924,2.924,0,0,1,2.924-2.923h25.336a2.924,2.924,0,0,1,2.924,2.923v13.643a2.924,2.924,0,0,1-2.924,2.923Zm-.975-9.745a1.946,1.946,0,0,0,1.948,1.949,1.947,1.947,0,0,0,1.949-1.949,1.947,1.947,0,0,0-1.949-1.949A1.946,1.946,0,0,0-6304.052-3542.562Zm-1.949-18.515a2.906,2.906,0,0,1,.229-1.138,2.918,2.918,0,0,1,.627-.929,2.905,2.905,0,0,1,.93-.626,2.9,2.9,0,0,1,1.138-.23h13.643a2.9,2.9,0,0,1,1.138.23,2.912,2.912,0,0,1,.929.626,2.918,2.918,0,0,1,.627.929,2.907,2.907,0,0,1,.23,1.138v5.908h-17.176a2.947,2.947,0,0,0-.684.081,2.87,2.87,0,0,0-.626.229,2.929,2.929,0,0,0-.55.358,2.98,2.98,0,0,0-.455.47h0Zm27,6.68-3.337-3.329c-.292-.291-.056-.75.4-.75h1.93c-.049-2.933-.895-4.2-4.078-3.34a.349.349,0,0,1-.409-.531,4.716,4.716,0,0,1,3.384-1.576c3.343,0,4.05,2.409,4.09,5.447h1.758c.453,0,.69.459.4.75l-3.337,3.329a.566.566,0,0,1-.4.157A.565.565,0,0,1-6279-3554.4Z" transform="translate(3564 -6274.742) rotate(-90)"/>
</svg>
