<svg version="1.1" xmlns="http://www.w3.org/2000/svg" viewBox="0 0 52 32"><path fill="#f8f8ff" d="M4.828 23.75s1.428-6.809 3.238-9.952 4.619-11.856 17.237-11.047 13.522 5.142 15.57 9.952 5.142 4.095 6.333 6.619 0.619 3.143 0.619 3.143z"></path>
<path fill="#f5f5fc" d="M4.828 23.75s1.286 1.428 1.143 1.762-3.524 4.047 2.666 5.285 30.521 1.809 33.902 0.286 2.19-2.285 0.952-3.857 2.428-0.048 3.238-1.667c0.455-0.889 0.832-1.922 1.078-3.005l0.017-0.090z"></path>
<path fill="#e9edfa" d="M47.736 20.647s-4.863-4.778-18.91-1.826-19.094-0.594-21.189-0.594-2.202 5.535-2.202 5.535l42.384-1.29 0.114-0.36c0.014-0.071 0.022-0.152 0.022-0.236 0-0.034-0.001-0.068-0.004-0.102l0 0.004-0.018-0.219c-0.007-0.076-0.016-0.143-0.029-0.209l0.002 0.012z"></path>
<path fill="#bac6f2" d="M4.81 23.733s-5.324-2.684 0-4.136c0 0 2.333-6.028 6.556-0.792 0 0 3.872-0.396 3.96 2.2 0 0 0.836 0.571 2.112 0.704s1.364 1.188 1.1 1.496-1.188 0.396-1.188 0.396z"></path>
<path fill="#b1c1f2" d="M44.949 22.554l-0.004-11.727s-5.637-0.446-4.803-3.976c0.549-2.325 2.404-2.508 2.359-3.734-0.032-0.886 0.773-4.512 3.206-2.536 1.922 1.561 1.019 2.848 2.012 3.031 1.017 0.187 2.257 1.897 1.567 2.9s0.079 1.040 0.079 1.541 0.408 1.959-1.661 2.333-2.469 0.496-2.469 0.496l0.174 11.67z"></path>
<path fill="#b1c1f2" d="M43.6 22.6v-5.901s-1.943-0.225-1.656-2.006c0.19-1.173 0.829-1.265 0.813-1.884-0.011-0.447 0.267-2.276 1.105-1.279 0.663 0.787 0.352 1.437 0.693 1.529 0.35 0.095 0.778 0.957 0.54 1.463s0.027 0.524 0.027 0.778 0.143 0.989-0.571 1.178-0.733 0.19-0.733 0.19l0.011 5.914z"></path>
<path fill="#bac6f2" d="M41.813 22.655l0.006-9.925s4.005-0.377 3.413-3.366c-0.39-1.969-1.708-2.124-1.676-3.161 0.023-0.75-0.549-3.82-2.278-2.147-1.365 1.321-0.724 2.411-1.428 2.566-0.722 0.159-1.604 1.606-1.114 2.456s-0.056 0.88-0.056 1.305-0.29 1.659 1.18 1.977 1.755 0.42 1.755 0.42l-0.109 9.882z"></path>
<path fill="#fff" d="M18.584 10.403c0 0.628-0.509 1.137-1.137 1.137s-1.137-0.509-1.137-1.137c0-0.628 0.509-1.137 1.137-1.137s1.137 0.509 1.137 1.137z"></path>
<path fill="#fff" d="M14.74 10.375c0 0.628-0.509 1.137-1.137 1.137s-1.137-0.509-1.137-1.137c0-0.628 0.509-1.137 1.137-1.137s1.137 0.509 1.137 1.137z"></path>
<path fill="#fff" d="M17.099 10.327c0 0.845-0.685 1.531-1.531 1.531s-1.531-0.685-1.531-1.531c0-0.845 0.685-1.531 1.531-1.531s1.531 0.685 1.531 1.531z"></path>
<path fill="#fff" d="M32.994 7.861c0 0.628-0.509 1.137-1.137 1.137s-1.137-0.509-1.137-1.137c0-0.628 0.509-1.137 1.137-1.137s1.137 0.509 1.137 1.137z"></path>
<path fill="#fff" d="M35.352 7.813c0 0.845-0.685 1.531-1.531 1.531s-1.531-0.685-1.531-1.531c0-0.845 0.685-1.531 1.531-1.531s1.531 0.685 1.531 1.531z"></path>
<path fill="#4c6796" d="M28.955 20.715c0 0.272-1.424 0.492-3.181 0.492s-3.181-0.22-3.181-0.492c0-0.272 1.424-0.492 3.181-0.492s3.181 0.22 3.181 0.492z"></path>
<path fill="#4c6796" d="M25.877 16.36l3.205-3.667c0.45-0.46 0.728-1.090 0.728-1.785 0-1.41-1.143-2.553-2.553-2.553-0.715 0-1.361 0.294-1.825 0.767l-0 0c-0.459-0.445-1.085-0.719-1.776-0.719-1.41 0-2.553 1.143-2.553 2.553 0 0.71 0.29 1.353 0.758 1.816l0 0 3.566 3.587z"></path>
<path fill="#4c6796" d="M14.662 4.394c0 1.189-0.964 2.153-2.153 2.153s-2.153-0.964-2.153-2.153c0-1.189 0.964-2.153 2.153-2.153s2.153 0.964 2.153 2.153z"></path>
<path fill="#4c6796" d="M28.346 23.766c0 0.214-1.121 0.387-2.504 0.387s-2.504-0.173-2.504-0.387c0-0.214 1.121-0.387 2.504-0.387s2.504 0.173 2.504 0.387z"></path>
<path fill="#4c6796" d="M27.534 26.713c0 0.144-0.758 0.262-1.692 0.262s-1.692-0.117-1.692-0.262c0-0.144 0.758-0.262 1.692-0.262s1.692 0.117 1.692 0.262z"></path>
<path fill="#2f2e41" d="M11.827 15.069c0 0.919-0.745 1.665-1.665 1.665s-1.665-0.745-1.665-1.665c0-0.919 0.745-1.665 1.665-1.665s1.665 0.745 1.665 1.665z"></path>
<path fill="#9f616a" d="M9.367 15.91s-0.542 1.201-0.697 1.239 1.278 0.736 1.278 0.736 0.271-1.472 0.387-1.549-0.969-0.426-0.969-0.426z"></path>
<path fill="#9f616a" d="M11.304 15.677c0 0.62-0.503 1.123-1.123 1.123s-1.123-0.503-1.123-1.123c0-0.62 0.503-1.123 1.123-1.123s1.123 0.503 1.123 1.123z"></path>
<path fill="#2f2e41" d="M11.122 24.226h-4.776c0.16-0.58 0.33-1.155 0.427-1.475 0.048-0.16 0.078-0.256 0.078-0.256s3.602 0.775 3.679 0.814c0.042 0.045 0.080 0.094 0.112 0.147l0.002 0.004c0.113 0.165 0.292 0.449 0.478 0.766z"></path>
<path fill="#9f616a" d="M5.184 13.276l-1.162-1.782s0.287-1.869-0.1-1.52-0.51 1.756-0.51 1.756l1.346 2.049z"></path>
<path fill="#9f616a" d="M15.72 16.529l1.046-0.077s1.239-1.317 1.317-0.891-1.007 1.356-1.007 1.356l-1.433 0.155z"></path>
<path fill="#3f3d56" d="M8.089 16.916v-0.387s-1.007-0.658-0.968-0.775c0.003-0.013 0.005-0.027 0.005-0.042 0-0.063-0.032-0.119-0.082-0.151l-0.001-0s-0.116-0.155-0.116-0.194-0.155-0.077-0.155-0.077l-0.968-1.123s-0.543-1.084-0.659-1.046-0.736 0.271-0.658 0.426 2.246 3.486 2.246 3.486 0.116 0.736 0.31 0.736 1.046-0.852 1.046-0.852z"></path>
<path fill="#3f3d56" d="M10.684 17.382s0.852-0.039 0.891 0 0.581 0 0.581 0 1.472-0.349 1.588-0.465 2.053-0.62 2.13-0.387 0.271 0.697 0.077 0.775-5.423 1.394-5.423 1.394z"></path>
<path fill="#2f2e41" d="M10.269 13.316c0 0.38-0.308 0.689-0.689 0.689s-0.689-0.308-0.689-0.689c0-0.38 0.308-0.689 0.689-0.689s0.689 0.308 0.689 0.689z"></path>
<path fill="#2f2e41" d="M8.661 12.943c0-0.355 0.269-0.648 0.614-0.685l0.003-0c-0.021-0.002-0.046-0.004-0.072-0.004v0c-0.38 0-0.689 0.308-0.689 0.689s0.308 0.689 0.689 0.689v0c0.025 0 0.050-0.001 0.075-0.004l-0.003 0c-0.348-0.038-0.617-0.33-0.617-0.685v0z"></path>
<path fill="#2f2e41" d="M11.504 14.716c0 0.38-0.514 0.689-1.148 0.689s-1.148-0.308-1.148-0.689c0-0.38 0.514-0.689 1.148-0.689s1.148 0.308 1.148 0.689z"></path>
<path fill="#3f3d56" d="M9.038 16.51s-0.349 0.271-0.426 0.31-0.542-0.349-0.62-0.349-1.085 1.162-1.085 1.162 0.187 0.216 0 1.317c-0.070 0.413-0.209 2.179-0.209 2.411s-0.759 0.803-0.062 1.307 4.028 1.046 4.067 0.736-0.387-1.123-0.194-1.511 0.194-1.82 0.194-1.82l0.232-1.511 0.194-1.201s-0.91-0.252-0.988-0.252-0.426 0.542-1.104-0.6z"></path>
<path fill="#4c6796" d="M43.149 12.841l0.793-0.031 0.040 1.019-0.793 0.031-0.040-1.019z"></path>
<path fill="#ffb9b9" d="M40.366 16.38s-1.098-0.524-1.080-0.072 1.106 0.751 1.106 0.751z"></path>
<path fill="#2f2e41" d="M45.47 22.373h-5.206c0.148-0.624 0.311-1.147 0.507-1.655l-0.030 0.087c0.128-0.35 0.228-0.594 0.228-0.594 0.591-0.667 1.449-0.684 2.254-0.519 0.096 0.020 0.192 0.041 0.286 0.066 0.011 0.002 0.022 0.006 0.033 0.008 0.188 0.048 0.371 0.105 0.544 0.161 0.298 0.097 0.567 0.195 0.784 0.262 0.095 0.033 0.208 0.060 0.325 0.077l0.010 0.001c0.018 0.002 0.039 0.003 0.060 0.003 0.005 0 0.010-0 0.015-0l-0.001 0c0.086-0.004 0.146 0.089 0.184 0.251 0.087 0.365 0.067 1.084 0.006 1.851z"></path>
<path fill="#ffb9b9" d="M44.443 11.856s0.603 0.94 0.839 1.158-0.427 0.697-0.427 0.697l-1.185 0.159s0.015-1.078-0.046-1.189 0.819-0.825 0.819-0.825z"></path>
<path fill="#4c6796" d="M43.413 13.086s0.244 0.444 0.471 0.435 1.398-0.508 1.448-0.68 0.388 1.232 0.388 1.232l-2.866 5.044-0.699-0.483 0.339-2.961 0.278-1.598z"></path>
<path fill="#575a89" d="M45.437 17.6c-0.111 0.211-0.176 0.461-0.176 0.726 0 0.006 0 0.013 0 0.019v-0.001c0 0.011 0.001 0.023 0.002 0.034 0.027 0.524 0.22 1.13 0.29 1.571 0.050 0.316 0.036 0.547-0.149 0.601-0.448 0.131 0.065 0.224-1.67 0.802s-2.038 0.079-2.042-0.034 0.246-0.973 0.187-1.028-0.823 0.712-1.054 0.608-0.026-0.679-0.026-0.679 0.52-1.211 0.509-1.494 0.788-1.618 0.788-1.618l0.543-3.536s0.209-0.462 0.49-0.529c0.043-0.009 0.091-0.015 0.142-0.015 0.138 0 0.267 0.040 0.375 0.11l-0.003-0.002-0.47 1.039-0.496 1.834 0.083 0.677s0.577-1.213 0.955-1.681 1.186-1.577 1.186-1.577 0.189-0.636 0.046-0.826 0.594-0.219 0.907 0.562c0.166 0.414 0.436 1.032 0.605 1.607 0.151 0.51 0.222 0.986 0.073 1.258-0.228 0.416-0.802 0.963-1.095 1.574z"></path>
<path fill="#000" opacity="0.1" d="M46.532 16.027c-0.228 0.416-0.802 0.963-1.095 1.573-0.076-0.275-0.17-0.56-0.17-0.56s-0.358-1.914 0.7-2.408c0.020-0.002 0.044-0.003 0.068-0.003 0.16 0 0.307 0.053 0.425 0.142l-0.002-0.001c0.151 0.51 0.222 0.986 0.073 1.258z"></path>
<path fill="#575a89" d="M42.332 15.906l-0.897 0.262-1.245 0.048-0.128 1.082 2.047 0.147s0.511-1.437 0.224-1.539z"></path>
<path fill="#ffb9b9" d="M43.795 19.545s-1.2 0.199-0.926 0.56 1.337-0.019 1.337-0.019z"></path>
<path fill="#000" opacity="0.1" d="M45.264 18.378c0.027 0.524 0.22 1.13 0.29 1.571-0.382 0.362-0.746 0.681-0.883 0.686-0.283 0.011-0.738-0.028-0.906 0.035s-0.266-1.010-0.266-1.010 0.1-0.344 0.546-0.531c0.465-0.219 0.865-0.469 1.231-0.76l-0.013 0.010z"></path>
<path fill="#575a89" d="M45.955 14.292s0.958-0.151 0.906 1.439 0.101 2.604-0.284 2.903-1.637 1.651-1.92 1.662-0.738-0.028-0.906 0.035-0.266-1.010-0.266-1.010 0.1-0.344 0.546-0.531 1.498-0.852 1.489-1.078-0.266-1.010-0.266-1.010-0.358-1.914 0.7-2.408z"></path>
<path fill="#ffb9b9" d="M44.844 12.002c0 0.688-0.558 1.246-1.246 1.246s-1.246-0.558-1.246-1.246c0-0.688 0.558-1.246 1.246-1.246s1.246 0.558 1.246 1.246z"></path>
<path fill="#2f2e41" d="M42.759 10.215c-0.029 0.025-0.064 0.043-0.103 0.052l-0.002 0c-0.004 0.001-0.008 0.001-0.013 0.001-0.036 0-0.067-0.026-0.074-0.061l-0-0c-0.023 0.063-0.065 0.116-0.118 0.152l-0.001 0.001c-0.058 0.030-0.148 0.005-0.157-0.060-0.009 0.052-0.032 0.097-0.063 0.134l0-0c-0.017 0.018-0.042 0.030-0.069 0.030-0.025 0-0.047-0.010-0.064-0.025l0 0c0.012 0.107 0.018 0.23 0.018 0.355 0 0.024-0 0.048-0.001 0.072l0-0.004c0.008 0.141 0.046 0.291 0.153 0.384 0.156 0.136 0.39 0.102 0.595 0.076 0.011-0.002 0.024-0.004 0.037-0.004 0.020 0 0.039 0.003 0.057 0.009l-0.001-0c0.077 0.033 0.073 0.14 0.074 0.223 0.013 0.304 0.244 0.55 0.539 0.588l0.003 0c0.014 0.002 0.031 0.004 0.047 0.004 0.069 0 0.133-0.023 0.184-0.061l-0.001 0.001c0.058-0.049 0.088-0.13 0.155-0.167 0.108-0.060 0.24 0.028 0.319 0.123s0.157 0.213 0.28 0.23c0.163 0.023 0.286-0.142 0.347-0.295 0.075-0.186 0.118-0.401 0.118-0.627 0-0.257-0.056-0.501-0.157-0.72l0.004 0.011c-0.339-0.74-1.498-0.857-2.11-0.423z"></path>
</svg>
