<svg xmlns="http://www.w3.org/2000/svg" viewBox="0 0 752.357 464.057">
  <g id="Group_51" data-name="Group 51" transform="translate(-583.561 -162)">
    <g id="bg-13" transform="translate(618.993 161.997)">
      <path id="Path_323" data-name="Path 323" d="M521,555.168s20.715-98.742,46.954-144.315,66.979-171.935,249.962-160.2,196.1,74.574,225.794,144.315,74.574,59.383,91.837,95.98,8.977,45.573,8.977,45.573Z" transform="translate(-486.418 -210.745)" fill="#f8f8ff"/>
      <path id="Path_324" data-name="Path 324" d="M521,683.644s18.644,20.715,16.572,25.549-51.1,58.693,38.668,76.646,442.612,26.239,491.638,4.143,31.763-33.144,13.81-55.931,35.216-.69,46.954-24.168A195.1,195.1,0,0,0,1144.524,665Z" transform="translate(-486.418 -339.22)" fill="#f5f5fc"/>
      <path id="Path_325" data-name="Path 325" d="M1147.186,608.7s-70.528-69.292-274.226-26.481S596.068,573.6,565.686,573.6s-31.936,80.271-31.936,80.271l614.637-18.7,1.65-5.227a18.641,18.641,0,0,0,.262-4.833l-.262-3.176a28.438,28.438,0,0,0-.394-2.845Z" transform="translate(-490.364 -309.278)" fill="#e9edfa"/>
      <path id="Path_326" data-name="Path 326" d="M505.24,645.711s-77.205-38.924,0-59.977c0,0,33.835-87.418,95.075-11.483,0,0,56.152-5.745,57.429,31.9,0,0,12.125,8.286,30.631,10.213s19.783,17.228,15.951,21.7S687.1,643.8,687.1,643.8Z" transform="translate(-470.92 -301.536)" fill="#bac6f2"/>
      <path id="Path_327" data-name="Path 327" d="M1331.814,520.278l-.062-170.064s-81.742-6.463-69.658-57.657c7.955-33.717,34.856-36.369,34.208-54.149-.47-12.843,11.207-65.432,46.491-36.783,27.876,22.635,14.777,41.3,29.174,43.951,14.742,2.714,32.73,27.51,22.731,42.052s1.139,15.081,1.139,22.352,5.911,28.414-24.085,33.835-35.809,7.2-35.809,7.2l2.52,169.235Z" transform="translate(-715.407 -193.2)" fill="#b1c1f2"/>
      <path id="Path_328" data-name="Path 328" d="M1324.328,593.991V508.41s-28.179-3.259-24.016-29.084c2.762-17.007,12.015-18.347,11.794-27.316-.159-6.477,3.867-33.006,16.026-18.554,9.612,11.414,5.1,20.832,10.054,22.172,5.082,1.381,11.283,13.879,7.837,21.212s.394,7.6.394,11.276,2.071,14.335-8.286,17.083-10.634,2.762-10.634,2.762l.166,85.76Z" transform="translate(-727.483 -266.243)" fill="#b1c1f2"/>
      <path id="Path_329" data-name="Path 329" d="M1276.836,544.9l.083-143.935s58.078-5.469,49.5-48.819c-5.655-28.552-24.768-30.8-24.306-45.842.331-10.875-7.962-55.4-33.034-31.142-19.8,19.161-10.5,34.967-20.715,37.211-10.475,2.3-23.256,23.291-16.151,35.609s-.808,12.767-.808,18.927-4.2,24.057,17.118,28.677,25.445,6.09,25.445,6.09l-1.588,143.307Z" transform="translate(-705.899 -216.359)" fill="#bac6f2"/>
      <circle id="Ellipse_377" data-name="Ellipse 377" cx="16.482" cy="16.482" r="16.482" transform="translate(201.111 134.38)" fill="#fff"/>
      <circle id="Ellipse_378" data-name="Ellipse 378" cx="16.482" cy="16.482" r="16.482" transform="translate(145.36 133.979)" fill="#fff"/>
      <circle id="Ellipse_379" data-name="Ellipse 379" cx="22.2" cy="22.2" r="22.2" transform="translate(168.133 127.558)" fill="#fff"/>
      <circle id="Ellipse_380" data-name="Ellipse 380" cx="16.482" cy="16.482" r="16.482" transform="translate(410.071 97.521)" fill="#fff"/>
      <circle id="Ellipse_381" data-name="Ellipse 381" cx="22.2" cy="22.2" r="22.2" transform="translate(432.837 91.106)" fill="#fff"/>
    </g>
    <g id="undraw_spread_love_r9jb" transform="translate(583.561 120.971)">
      <ellipse id="Ellipse_382" data-name="Ellipse 382" cx="46.131" cy="7.131" rx="46.131" ry="7.131" transform="translate(327.64 334.303)" fill="#4c6796"/>
      <path id="Path_331" data-name="Path 331" d="M572.561,475.657l46.48-53.172A37.028,37.028,0,1,0,566.1,370.7a37.029,37.029,0,0,0-51.786,52.94l51.712,52.018" transform="translate(-197.297 -197.377)" fill="#4c6796"/>
      <rect id="Rectangle_134" data-name="Rectangle 134" width="250.835" height="227.442" transform="translate(1 164.9)" fill="none" stroke="#3f3d56" stroke-miterlimit="10" stroke-width="2"/>
      <rect id="Rectangle_135" data-name="Rectangle 135" width="250.835" height="227.442" transform="translate(500.522 138.036)" fill="none" stroke="#3f3d56" stroke-miterlimit="10" stroke-width="2"/>
      <circle id="Ellipse_383" data-name="Ellipse 383" cx="31.22" cy="31.22" r="31.22" transform="translate(150.189 73.534)" fill="#4c6796"/>
      <path id="Path_332" data-name="Path 332" d="M433.74,512.269s39.207-13.795,55.906,5.082,63.166-10.891,63.166-10.891" transform="translate(-178.274 -237.62)" fill="none" stroke="#3f3d56" stroke-miterlimit="10" stroke-width="2"/>
      <path id="Path_333" data-name="Path 333" d="M773.69,473.548s-7.26-17.425-56.632-1.452-119.072,15.247-136.5-9.439l46.48-53.172A37.028,37.028,0,1,0,574.1,357.7a37.028,37.028,0,1,0-51.786,52.94l51.711,52.018" transform="translate(-199.489 -193.816)" fill="none" stroke="#3f3d56" stroke-miterlimit="10" stroke-width="2"/>
      <ellipse id="Ellipse_384" data-name="Ellipse 384" cx="46.131" cy="7.131" rx="46.131" ry="7.131" transform="translate(333.529 328.377)" fill="none" stroke="#3f3d56" stroke-miterlimit="10" stroke-width="2"/>
      <ellipse id="Ellipse_385" data-name="Ellipse 385" cx="36.316" cy="5.614" rx="36.316" ry="5.614" transform="translate(338.437 380.058)" fill="#4c6796"/>
      <ellipse id="Ellipse_386" data-name="Ellipse 386" cx="24.538" cy="3.793" rx="24.538" ry="3.793" transform="translate(350.215 424.616)" fill="#4c6796"/>
      <ellipse id="Ellipse_387" data-name="Ellipse 387" cx="36.316" cy="5.614" rx="36.316" ry="5.614" transform="translate(343.344 375.057)" fill="none" stroke="#3f3d56" stroke-miterlimit="10" stroke-width="2"/>
      <ellipse id="Ellipse_388" data-name="Ellipse 388" cx="24.538" cy="3.793" rx="24.538" ry="3.793" transform="translate(355.123 420.851)" fill="none" stroke="#3f3d56" stroke-miterlimit="10" stroke-width="2"/>
      <circle id="Ellipse_389" data-name="Ellipse 389" cx="24.143" cy="24.143" r="24.143" transform="translate(123.228 235.408)" fill="#2f2e41"/>
      <path id="Path_334" data-name="Path 334" d="M265.106,510.465S257.242,527.877,255,528.439s18.536,10.672,18.536,10.672,3.932-21.344,5.617-22.468S265.106,510.465,265.106,510.465Z" transform="translate(-129.261 -238.717)" fill="#9f616a"/>
      <circle id="Ellipse_390" data-name="Ellipse 390" cx="16.289" cy="16.289" r="16.289" transform="translate(131.352 252.089)" fill="#9f616a"/>
      <path id="Path_335" data-name="Path 335" d="M277.885,667.088H208.62c2.316-8.415,4.792-16.757,6.186-21.389.7-2.323,1.133-3.717,1.133-3.717s52.239,11.232,53.357,11.8a13.237,13.237,0,0,1,1.663,2.193C272.592,658.368,275.2,662.485,277.885,667.088Z" transform="translate(-116.603 -274.746)" fill="#2f2e41"/>
      <path id="Path_336" data-name="Path 336" d="M175.738,439.552l-16.851-25.838s4.167-27.1-1.45-22.049-7.394,25.47-7.394,25.47l19.517,29.719Z" transform="translate(-100.555 -206)" fill="#9f616a"/>
      <path id="Path_337" data-name="Path 337" d="M395.437,517.08l15.166-1.123s17.974-19.1,19.1-12.919S415.1,522.7,415.1,522.7l-20.783,2.247Z" transform="translate(-167.473 -236.345)" fill="#9f616a"/>
      <path id="Path_338" data-name="Path 338" d="M223.709,509.8v-5.617s-14.6-9.549-14.042-11.234a2.623,2.623,0,0,0-1.123-2.809s-1.685-2.247-1.685-2.808-2.247-1.123-2.247-1.123l-14.042-16.289S182.7,454.2,181.02,454.758s-10.672,3.932-9.549,6.179,32.578,50.552,32.578,50.552,1.685,10.672,4.494,10.672S223.709,509.8,223.709,509.8Z" transform="translate(-106.399 -223.452)" fill="#3f3d56"/>
      <path id="Path_339" data-name="Path 339" d="M294.441,534.869s12.357-.562,12.919,0,8.425,0,8.425,0,21.344-5.055,23.029-6.74,29.77-8.987,30.893-5.617,3.932,10.11,1.123,11.234-78.637,20.221-78.637,20.221Z" transform="translate(-139.498 -241.777)" fill="#3f3d56"/>
      <circle id="Ellipse_391" data-name="Ellipse 391" cx="9.99" cy="9.99" r="9.99" transform="translate(128.935 224.151)" fill="#2f2e41"/>
      <path id="Path_340" data-name="Path 340" d="M254.095,447.445a9.991,9.991,0,0,1,8.949-9.936,10.1,10.1,0,0,0-1.04-.054,9.99,9.99,0,1,0,0,19.98,10.1,10.1,0,0,0,1.041-.054,9.991,9.991,0,0,1-8.949-9.936Z" transform="translate(-128.49 -218.716)" fill="#2f2e41"/>
      <ellipse id="Ellipse_392" data-name="Ellipse 392" cx="16.65" cy="9.99" rx="16.65" ry="9.99" transform="translate(133.529 244.442)" fill="#2f2e41"/>
      <path id="Path_341" data-name="Path 341" d="M247.657,522.244s-5.055,3.932-6.179,4.494-7.864-5.055-8.987-5.055-15.727,16.851-15.727,16.851,2.714,3.126,0,19.1c-1.018,5.99-3.037,31.6-3.037,34.968s-11.005,11.652-.895,18.954,58.416,15.166,58.978,10.672S266.193,605.937,269,600.32s2.809-26.4,2.809-26.4l3.37-21.906,2.808-17.412s-13.2-3.651-14.323-3.651S257.487,538.814,247.657,522.244Z" transform="translate(-116.586 -241.79)" fill="#3f3d56"/>
      <rect id="Rectangle_136" data-name="Rectangle 136" width="11.503" height="14.789" transform="translate(625.735 227.252) rotate(-2.221)" fill="#4c6796"/>
      <path id="Path_342" data-name="Path 342" d="M882.225,518.45s-15.917-7.605-15.662-1.037S882.607,528.3,882.607,528.3Z" transform="translate(-296.846 -239.888)" fill="#ffb9b9"/>
      <path id="Path_343" data-name="Path 343" d="M961.592,624.418h-75.5a185.083,185.083,0,0,1,6.919-22.733c1.859-5.082,3.3-8.611,3.3-8.611,8.575-9.671,21.019-9.918,32.694-7.529,1.394.283,2.781.6,4.146.958.16.036.319.08.479.123,2.73.7,5.38,1.517,7.885,2.331,4.32,1.409,8.219,2.832,11.37,3.8a28.014,28.014,0,0,0,4.865,1.14,8.256,8.256,0,0,0,1.089.044c1.249-.051,2.113,1.292,2.672,3.638C962.768,602.869,962.478,613.295,961.592,624.418Z" transform="translate(-302.196 -258.94)" fill="#2f2e41"/>
      <path id="Path_344" data-name="Path 344" d="M965.072,429.492s8.751,13.638,12.163,16.8-6.186,10.107-6.186,10.107L953.871,458.7s.216-15.631-.669-17.241S965.072,429.492,965.072,429.492Z" transform="translate(-320.57 -216.535)" fill="#ffb9b9"/>
      <path id="Path_345" data-name="Path 345" d="M942.114,452.654s3.539,6.441,6.823,6.313,20.27-7.364,21-9.859,5.626,17.871,5.626,17.871l-41.564,73.146-10.138-7.007,4.912-42.946,4.034-23.179Z" transform="translate(-312.542 -221.85)" fill="#4c6796"/>
      <path id="Path_346" data-name="Path 346" d="M963.588,516.252a23,23,0,0,0-2.55,10.788c.006.164.013.328.027.492.393,7.6,3.193,16.387,4.2,22.777.729,4.584.521,7.931-2.162,8.717-6.5,1.9.948,3.252-24.216,11.628s-29.556,1.146-29.619-.5,3.564-14.116,2.711-14.905-11.933,10.329-15.281,8.815-.382-9.852-.382-9.852,7.541-17.559,7.382-21.664,11.423-23.465,11.423-23.465L923,457.8s3.029-6.7,7.1-7.675a10.09,10.09,0,0,1,7.453,1.355l-6.816,15.064-7.191,26.59,1.2,9.82s8.362-17.591,13.854-24.382,17.2-22.867,17.2-22.867,2.734-9.225.67-11.981,8.609-3.179,13.159,8.156c2.412,6.007,6.328,14.966,8.781,23.307,2.186,7.389,3.219,14.3,1.053,18.245C976.159,499.468,967.833,507.4,963.588,516.252Z" transform="translate(-304.665 -219.986)" fill="#575a89"/>
      <path id="Path_347" data-name="Path 347" d="M1004.062,505.155c-3.31,6.032-11.636,13.96-15.88,22.816-1.109-3.994-2.461-8.127-2.461-8.127s-5.187-27.755,10.157-34.927a10.269,10.269,0,0,1,7.132,1.993C1005.2,494.3,1006.228,501.206,1004.062,505.155Z" transform="translate(-329.259 -231.705)" opacity="0.1"/>
      <path id="Path_348" data-name="Path 348" d="M914.981,510.4l-13.008,3.793-18.062.7-1.858,15.694,29.683,2.138S919.15,511.883,914.981,510.4Z" transform="translate(-301.09 -238.699)" fill="#575a89"/>
      <path id="Path_349" data-name="Path 349" d="M951.331,583.08s-17.4,2.887-13.431,8.124,19.389-.269,19.389-.269Z" transform="translate(-316.228 -258.61)" fill="#ffb9b9"/>
      <path id="Path_350" data-name="Path 350" d="M976.3,559.77c.393,7.6,3.193,16.387,4.2,22.777-5.544,5.247-10.816,9.875-12.8,9.952-4.1.159-10.7-.407-13.136.509s-3.857-14.651-3.857-14.651,1.451-4.99,7.923-7.707A90.149,90.149,0,0,0,976.3,559.77Z" transform="translate(-319.895 -252.224)" opacity="0.1"/>
      <path id="Path_351" data-name="Path 351" d="M986.251,478.129s13.893-2.183,13.143,20.868,1.464,37.766-4.123,42.093-23.738,23.943-27.843,24.1-10.7-.407-13.136.509-3.857-14.65-3.857-14.65,1.451-4.99,7.923-7.707,21.721-12.353,21.594-15.637-3.857-14.651-3.857-14.651S970.907,485.3,986.251,478.129Z" transform="translate(-319.823 -229.843)" fill="#575a89"/>
      <circle id="Ellipse_393" data-name="Ellipse 393" cx="18.075" cy="18.075" r="18.075" transform="translate(614.175 197.002)" fill="#ffb9b9"/>
      <path id="Path_352" data-name="Path 352" d="M932.3,395.352a3.489,3.489,0,0,1-1.52.763,1.085,1.085,0,0,1-1.257-.871,4.506,4.506,0,0,1-1.724,2.212c-.844.44-2.15.071-2.272-.873a3.984,3.984,0,0,1-.917,1.936,1.374,1.374,0,0,1-1.931.065,49.629,49.629,0,0,1,.258,6.15c.116,2.051.663,4.225,2.213,5.574,2.26,1.967,5.658,1.481,8.631,1.109a2.619,2.619,0,0,1,1.352.074c1.113.474,1.063,2.024,1.078,3.233a8.984,8.984,0,0,0,7.867,8.532,4.5,4.5,0,0,0,3.347-.817c.844-.715,1.275-1.881,2.242-2.419,1.573-.874,3.481.4,4.631,1.785s2.284,3.087,4.066,3.34c2.357.335,4.151-2.066,5.032-4.278a24.939,24.939,0,0,0-.5-19.377C957.979,390.763,941.17,389.066,932.3,395.352Z" transform="translate(-312.22 -206.182)" fill="#2f2e41"/>
    </g>
  </g>
</svg>
