<svg version="1.1" xmlns="http://www.w3.org/2000/svg" viewBox="0 0 28 32">
<path d="M22 20c-1.413 0-2.712 0.489-3.737 1.306l-6.405-4.003c0.090-0.391 0.142-0.841 0.142-1.303s-0.052-0.911-0.15-1.343l0.008 0.040 6.405-4.003c1.025 0.817 2.324 1.306 3.737 1.306 3.314 0 6-2.686 6-6s-2.686-6-6-6-6 2.686-6 6c0 0.447 0.049 0.883 0.142 1.303l-6.405 4.003c-1.025-0.817-2.324-1.306-3.737-1.306-3.314 0-6 2.686-6 6s2.686 6 6 6c1.413 0 2.712-0.489 3.737-1.306l6.405 4.003c-0.090 0.391-0.142 0.84-0.142 1.301 0 0.001 0 0.001 0 0.002v-0c0 3.314 2.686 6 6 6s6-2.686 6-6-2.686-6-6-6z"></path>
</svg>
