<svg version="1.1" xmlns="http://www.w3.org/2000/svg" viewBox="0 0 96 32">
  <path fill="#f45c5e" d="M16.003 32c-0.001 0-0.003 0-0.004 0-0.381 0-0.725-0.155-0.974-0.405l-14.616-14.616c-0.25-0.25-0.405-0.596-0.405-0.979s0.155-0.728 0.405-0.979l14.617-14.617c0.25-0.25 0.596-0.405 0.979-0.405s0.728 0.155 0.979 0.405l14.616 14.617c0.25 0.251 0.405 0.596 0.405 0.979s-0.155 0.728-0.405 0.979l-14.616 14.616c-0.249 0.25-0.594 0.405-0.974 0.405-0.002 0-0.003 0-0.005 0h0zM10.566 6.709v18.664h4.964v-7.006h5.588v-4.041h-5.586v-3.56h6.072v-4.056z"></path>
  <path fill="#668ba2" d="M36.888 25.373h-12.225v-18.664h5.049v14.593h7.176zM50.955 21.26v4.113h-11.075v-18.664h11.076v4.056h-6.027v2.935h5.588v4.042h-5.588v3.517zM64.683 16.225l6.353 9.148h-5.827l-3.631-5.829-3.602 5.829h-5.701l6.183-9.544-5.815-9.119h5.588l3.361 5.772 3.248-5.772h5.758z"></path>
  <path fill="#132533" d="M94.738 28.141h-20.854c-0 0-0 0-0.001 0-0.764 0-1.384-0.62-1.384-1.384 0 0 0 0 0 0v0-21.962c0-0 0-0 0-0 0-0.764 0.62-1.384 1.384-1.384 0 0 0 0 0.001 0h20.854c0.764 0 1.384 0.62 1.384 1.384v21.961c0 0.764-0.62 1.384-1.384 1.384v0zM84.351 6.149c-0.019-0-0.042-0-0.064-0-0.715 0-1.417 0.055-2.102 0.162l0.076-0.010c-0.691 0.107-1.305 0.267-1.894 0.482l0.068-0.022c-0.597 0.217-1.112 0.476-1.59 0.787l0.030-0.018c-0.489 0.318-0.914 0.672-1.293 1.070l-0.003 0.003c-0.379 0.401-0.716 0.849-0.999 1.332l-0.019 0.035c-0.275 0.469-0.521 1.013-0.709 1.583l-0.017 0.061c-0.183 0.545-0.335 1.195-0.429 1.863l-0.007 0.060c-0.093 0.661-0.146 1.425-0.146 2.201s0.053 1.54 0.155 2.288l-0.010-0.087c0.102 0.728 0.254 1.378 0.46 2.003l-0.023-0.080c0.206 0.633 0.453 1.178 0.751 1.69l-0.022-0.041c0.303 0.52 0.641 0.97 1.024 1.376l-0.003-0.004c0.382 0.404 0.808 0.76 1.271 1.063l0.027 0.017c0.448 0.294 0.963 0.554 1.506 0.756l0.054 0.017c0.519 0.194 1.132 0.355 1.766 0.455l0.056 0.007c0.626 0.098 1.349 0.154 2.084 0.154s1.458-0.056 2.163-0.163l-0.079 0.010c0.687-0.106 1.299-0.266 1.885-0.481l-0.068 0.022c0.594-0.216 1.106-0.474 1.581-0.783l-0.030 0.018c0.486-0.317 0.907-0.67 1.282-1.067l0.003-0.003c0.376-0.4 0.71-0.848 0.99-1.331l0.019-0.035c0.273-0.471 0.517-1.017 0.703-1.589l0.017-0.061c0.18-0.548 0.331-1.201 0.423-1.872l0.007-0.060c0.092-0.666 0.144-1.436 0.144-2.219s-0.052-1.552-0.153-2.307l0.010 0.088c-0.099-0.731-0.25-1.384-0.453-2.013l0.023 0.081c-0.201-0.632-0.444-1.177-0.738-1.689l0.022 0.042c-0.297-0.515-0.63-0.961-1.008-1.363l0.003 0.004c-0.377-0.398-0.798-0.748-1.256-1.046l-0.027-0.016c-0.446-0.289-0.958-0.545-1.498-0.742l-0.053-0.017c-0.519-0.191-1.133-0.35-1.766-0.448l-0.055-0.007c-0.614-0.098-1.321-0.153-2.042-0.153-0.016 0-0.032 0-0.048 0h0.002zM84.316 21.154c-0.024 0.001-0.051 0.001-0.079 0.001-0.567 0-1.105-0.126-1.588-0.351l0.023 0.010c-0.247-0.12-0.459-0.262-0.65-0.428l0.004 0.003c-0.199-0.175-0.373-0.37-0.521-0.584l-0.007-0.011c-0.324-0.486-0.568-1.056-0.699-1.667l-0.006-0.032c-0.15-0.673-0.236-1.445-0.236-2.237 0-0.050 0-0.099 0.001-0.148l-0 0.008c-0.001-0.041-0.001-0.090-0.001-0.139 0-0.793 0.087-1.566 0.251-2.309l-0.013 0.071c0.137-0.644 0.383-1.214 0.72-1.718l-0.011 0.018c0.156-0.225 0.332-0.42 0.529-0.592l0.004-0.003c0.188-0.163 0.402-0.305 0.633-0.417l0.017-0.008c0.463-0.215 1.005-0.341 1.576-0.341 0.028 0 0.057 0 0.085 0.001l-0.004-0c0.025-0.001 0.054-0.001 0.083-0.001 0.567 0 1.105 0.124 1.588 0.346l-0.024-0.010c0.246 0.118 0.458 0.258 0.648 0.422l-0.004-0.003c0.198 0.172 0.37 0.365 0.517 0.576l0.007 0.010c0.323 0.486 0.565 1.056 0.691 1.669l0.005 0.031c0.148 0.682 0.233 1.466 0.233 2.27 0 0.053-0 0.105-0.001 0.158l0-0.008c0.001 0.046 0.001 0.1 0.001 0.154 0 0.8-0.084 1.581-0.244 2.334l0.013-0.073c-0.13 0.638-0.37 1.203-0.702 1.701l0.011-0.017c-0.153 0.218-0.325 0.408-0.519 0.573l-0.004 0.003c-0.188 0.159-0.402 0.297-0.632 0.405l-0.018 0.007c-0.467 0.208-1.012 0.329-1.585 0.329-0.032 0-0.064-0-0.096-0.001l0.005 0z"></path>
  <path fill="#132533" d="M24.662 8.086l5.049 5.049v5.731l-5.049 5.049z"></path>
</svg>
